<svg width="22" height="25" viewBox="0 0 22 25" fill="none" xmlns="http://www.w3.org/2000/svg">
<path d="M4 7.83328H5.55556M5.55556 7.83328H18M5.55556 7.83328V18.7222C5.55556 19.1347 5.71944 19.5304 6.01117 19.8221C6.30289 20.1138 6.69855 20.2777 7.11111 20.2777H14.8889C15.3014 20.2777 15.6971 20.1138 15.9888 19.8221C16.2806 19.5304 16.4444 19.1347 16.4444 18.7222V7.83328M7.88889 7.83328V6.27772C7.88889 5.86516 8.05278 5.4695 8.3445 5.17778C8.63622 4.88606 9.03189 4.72217 9.44444 4.72217H12.5556C12.9681 4.72217 13.3638 4.88606 13.6555 5.17778C13.9472 5.4695 14.1111 5.86516 14.1111 6.27772V7.83328M9.44444 11.7222V16.3888M12.5556 11.7222V16.3888" stroke="#EB3B5A" stroke-width="2" stroke-linecap="round" stroke-linejoin="round"/>
</svg>
