<svg width="44" height="44" viewBox="0 0 44 44" fill="none" xmlns="http://www.w3.org/2000/svg">
<path d="M7.33594 34.369L12.3081 2.60826C12.3458 2.37348 12.4746 2.16306 12.6665 2.02269C12.8584 1.88233 13.098 1.82336 13.3332 1.85861C13.4721 1.88408 13.6037 1.93976 13.7187 2.02172C13.8337 2.10367 13.9293 2.2099 13.9987 2.33288L19.1315 11.9177L21.1663 8.01647C21.2219 7.90941 21.2982 7.81439 21.3906 7.73683C21.4831 7.65927 21.5899 7.6007 21.705 7.56447C21.8201 7.52823 21.9412 7.51505 22.0614 7.52567C22.1816 7.53628 22.2985 7.57049 22.4055 7.62634C22.5676 7.71979 22.7022 7.85436 22.7956 8.01647L36.6412 34.369H7.33594Z" fill="#FFA000"/>
<path d="M24.5014 21.9995L19.1468 11.8945L7.33594 34.3688L24.5014 21.9995Z" fill="#F57C00"/>
<path d="M36.6718 34.3693L32.8471 10.8394C32.8076 10.5985 32.6745 10.3829 32.4768 10.2396C32.279 10.0963 32.0327 10.037 31.7914 10.0745C31.6024 10.1014 31.4275 10.1901 31.2942 10.3269L7.33594 34.3693L20.6078 41.8506C21.017 42.0749 21.4761 42.1924 21.9427 42.1924C22.4093 42.1924 22.8684 42.0749 23.2775 41.8506L36.6718 34.3693Z" fill="#FFCA28"/>
<path d="M32.8853 10.8624C32.8458 10.6214 32.7127 10.4058 32.515 10.2625C32.3173 10.1192 32.071 10.0599 31.8297 10.0974C31.6401 10.1226 31.4647 10.2116 31.3325 10.3499L26.5592 15.1155L22.8262 7.98616C22.7705 7.87911 22.6943 7.78408 22.6018 7.70652C22.5094 7.62897 22.4026 7.57039 22.2875 7.53416C22.1724 7.49793 22.0513 7.48474 21.9311 7.49536C21.8109 7.50597 21.6939 7.54018 21.587 7.59603C21.4249 7.68948 21.2903 7.82405 21.1969 7.98616L19.1621 11.8874L14.0293 2.31022C13.9717 2.20504 13.8939 2.11227 13.8004 2.03723C13.7069 1.9622 13.5995 1.90637 13.4844 1.87296C13.3692 1.83956 13.2486 1.82923 13.1294 1.84257C13.0103 1.8559 12.895 1.89265 12.79 1.95069C12.6655 2.01717 12.5575 2.11082 12.4741 2.2247C12.3907 2.33858 12.334 2.46977 12.3081 2.60855L7.33594 34.3693L7.47363 34.4382L26.5974 15.3144L31.3707 10.5487C31.4549 10.4613 31.5559 10.3917 31.6676 10.3442C31.7794 10.2967 31.8995 10.2722 32.0209 10.2722C32.1423 10.2722 32.2625 10.2967 32.3742 10.3442C32.4859 10.3917 32.5869 10.4613 32.6711 10.5487C32.8125 10.6818 32.9019 10.8607 32.9236 11.0536L36.6871 34.354H36.733L32.8853 10.8624ZM7.38183 34.3234L12.3081 2.83803C12.324 2.71998 12.3633 2.60628 12.4237 2.5036C12.4841 2.40092 12.5644 2.31134 12.6598 2.24009C12.7553 2.16885 12.864 2.11738 12.9797 2.0887C13.0953 2.06002 13.2155 2.05471 13.3332 2.07308C13.4726 2.09701 13.6049 2.15208 13.7201 2.23419C13.8353 2.31631 13.9305 2.42335 13.9987 2.54735L19.1315 12.1322L21.1663 8.23094C21.2212 8.12317 21.297 8.02741 21.3893 7.94928C21.4817 7.87114 21.5886 7.81219 21.704 7.77587C21.8194 7.73955 21.9408 7.72658 22.0613 7.73774C22.1817 7.74889 22.2987 7.78393 22.4055 7.84082C22.5676 7.93427 22.7022 8.06884 22.7956 8.23094L26.4597 15.1996L7.38183 34.3234Z" fill="white" fill-opacity="0.2"/>
<path opacity="0.2" d="M23.278 41.5904C22.8679 41.8161 22.4074 41.9344 21.9393 41.9344C21.4713 41.9344 21.0108 41.8161 20.6007 41.5904L7.35938 34.201V34.4075L20.6083 41.8505C21.0175 42.0748 21.4766 42.1924 21.9432 42.1924C22.4098 42.1924 22.8689 42.0748 23.278 41.8505L36.6647 34.3999V34.1934L23.278 41.5904Z" fill="#A52714"/>
<path d="M32.8853 10.8624C32.8458 10.6214 32.7127 10.4058 32.515 10.2625C32.3173 10.1192 32.071 10.0599 31.8297 10.0974C31.6401 10.1226 31.4647 10.2116 31.3325 10.3499L26.5592 15.1155L22.8262 7.98616C22.7705 7.87911 22.6943 7.78408 22.6018 7.70652C22.5094 7.62897 22.4026 7.57039 22.2875 7.53416C22.1724 7.49793 22.0513 7.48474 21.9311 7.49536C21.8109 7.50597 21.6939 7.54018 21.587 7.59603C21.4249 7.68948 21.2903 7.82405 21.1969 7.98616L19.1621 11.8874L14.0293 2.31022C13.9717 2.20504 13.8939 2.11227 13.8004 2.03723C13.7069 1.9622 13.5995 1.90637 13.4844 1.87296C13.3692 1.83956 13.2486 1.82923 13.1294 1.84257C13.0103 1.8559 12.895 1.89265 12.79 1.95069C12.6655 2.01717 12.5575 2.11082 12.4741 2.2247C12.3907 2.33858 12.334 2.46977 12.3081 2.60855L7.33594 34.3693L20.6078 41.8506C21.017 42.0749 21.4761 42.1924 21.9427 42.1924C22.4093 42.1924 22.8684 42.0749 23.2775 41.8506L36.6642 34.3999L32.8853 10.8624Z" fill="url(#paint0_linear_1017_90)"/>
<defs>
<linearGradient id="paint0_linear_1017_90" x1="6.55431" y1="8.93156" x2="37.1702" y2="39.5679" gradientUnits="userSpaceOnUse">
<stop stop-color="white" stop-opacity="0.1"/>
<stop offset="1" stop-color="white" stop-opacity="0"/>
</linearGradient>
</defs>
</svg>
