<svg width="48" height="48" viewBox="0 0 48 48" fill="none" xmlns="http://www.w3.org/2000/svg">
<path fill-rule="evenodd" clip-rule="evenodd" d="M24.2782 13C18.047 13 13 18.047 13 24.2782C13 29.2688 16.2284 33.4841 20.7115 34.9785C21.2754 35.0771 21.4869 34.7388 21.4869 34.4427C21.4869 34.1749 21.4728 33.2867 21.4728 32.3422C18.6391 32.8638 17.906 31.6514 17.6805 31.017C17.5536 30.6927 17.0038 29.6918 16.5244 29.4239C16.1297 29.2125 15.5658 28.6908 16.5103 28.6767C17.3985 28.6626 18.0329 29.4944 18.2444 29.8328C19.2594 31.5386 20.8807 31.0593 21.5292 30.7632C21.6278 30.0301 21.9239 29.5367 22.2482 29.2548C19.7387 28.9728 17.1166 28 17.1166 23.6861C17.1166 22.4596 17.5536 21.4446 18.2726 20.6551C18.1598 20.3731 17.7651 19.2171 18.3854 17.6664C18.3854 17.6664 19.3299 17.3703 21.4869 18.8224C22.3891 18.5686 23.3478 18.4417 24.3064 18.4417C25.2651 18.4417 26.2237 18.5686 27.126 18.8224C29.2829 17.3562 30.2275 17.6664 30.2275 17.6664C30.8478 19.2171 30.4531 20.3731 30.3403 20.6551C31.0593 21.4446 31.4963 22.4455 31.4963 23.6861C31.4963 28.0141 28.86 28.9728 26.3506 29.2548C26.7594 29.6072 27.1119 30.2839 27.1119 31.3412C27.1119 32.8497 27.0978 34.0621 27.0978 34.4427C27.0978 34.7388 27.3093 35.0912 27.8732 34.9785C30.1121 34.2226 32.0576 32.7837 33.4359 30.8642C34.8142 28.9447 35.5559 26.6413 35.5565 24.2782C35.5565 18.047 30.5095 13 24.2782 13Z" fill="black"/>
</svg>
