<svg width="32" height="32" viewBox="0 0 32 32" fill="none" xmlns="http://www.w3.org/2000/svg">
<path d="M27 16.2443C27 15.3399 26.9251 14.6799 26.763 13.9954H16.2245V18.0776H22.4104C22.2857 19.0921 21.6122 20.6199 20.1156 21.6465L20.0946 21.7831L23.4267 24.3128L23.6576 24.3354C25.7777 22.4165 27 19.5932 27 16.2443Z" fill="#4285F4"/>
<path d="M16.2238 27C19.2544 27 21.7993 26.0221 23.6576 24.3354L20.1156 21.6465C19.1678 22.2943 17.895 22.7466 16.2238 22.7466C13.2556 22.7466 10.7363 20.8277 9.83829 18.1755L9.70666 18.1864L6.24191 20.8142L6.1966 20.9377C8.04238 24.531 11.8338 27 16.2238 27Z" fill="#34A853"/>
<path d="M9.83829 18.1755C9.60134 17.491 9.46486 16.7577 9.46486 16C9.46486 15.2421 9.60199 14.5088 9.82648 13.8244L9.82021 13.6786L6.31203 11.0086L6.19725 11.0621C5.43651 12.5533 5 14.2278 5 16C5 17.7722 5.43587 19.4465 6.1966 20.9377L9.83829 18.1755Z" fill="#FBBC05"/>
<path d="M16.2239 9.2533C18.3315 9.2533 19.7533 10.1455 20.564 10.8911L23.7318 7.86C21.7862 6.08778 19.2544 5 16.2239 5C11.8338 5 8.04304 7.46884 6.19725 11.0621L9.82648 13.8244C10.737 11.1722 13.2556 9.2533 16.2239 9.2533Z" fill="#EB4335"/>
</svg>
