<svg width="25" height="25" viewBox="0 0 15 14" fill="none" xmlns="http://www.w3.org/2000/svg"><path stroke="#eb3b5a" fill="#eb3b5a" d="M12.2708 7.57626L12.2706 7.57656C11.3268 9.12359 9.78935 10.3502 8.21216 11.5101L8.21216 11.5101C7.77699 11.8301 7.18558 11.8301 6.75041 11.5101L6.7504 11.5101C5.17321 10.3502 3.63575 9.12359 2.69198 7.57656L2.6918 7.57626C2.18871 6.75293 2.02342 5.72732 2.24307 4.77527L2.24311 4.77528L2.24456 4.76862C2.69943 2.66655 5.19797 1.84546 6.73005 3.22099L6.73127 3.22208C6.81654 3.29813 6.88801 3.37486 6.977 3.4704C7.01967 3.5162 7.06636 3.56633 7.12052 3.62277L7.48125 3.99867L7.84201 3.62281C7.89636 3.56619 7.94316 3.51594 7.98592 3.47004C8.07476 3.37466 8.14611 3.29806 8.23129 3.22209L8.23252 3.22099C9.7646 1.84546 12.2632 2.66656 12.718 4.76861L12.718 4.76862L12.7195 4.77528C12.9392 5.72731 12.7738 6.75292 12.2708 7.57626Z"></path></svg>