<svg width="44" height="44" viewBox="0 0 44 44" fill="none" xmlns="http://www.w3.org/2000/svg">
<circle cx="22" cy="22" r="22" fill="#FFDD59"/>
<path d="M26.0996 34.0344L28.6765 32.3292C28.8785 32.9637 30.1573 34.4706 31.7727 34.4706C33.3881 34.4706 34.1381 33.5883 34.1381 33.0034C34.1381 31.4094 32.4886 30.8474 31.6963 30.5774C31.5672 30.5334 31.4608 30.4972 31.3881 30.4655C31.3508 30.4493 31.2944 30.4277 31.222 30.4C30.3408 30.0634 27.09 28.8214 27.09 25.2212C27.09 21.2558 30.9169 20.7998 31.7823 20.7998C32.3485 20.7998 35.0708 20.8692 36.4265 23.417L33.9265 25.1618C33.3785 24.0514 32.4678 23.6846 31.9073 23.6846C30.5227 23.6846 30.2342 24.6997 30.2342 25.1618C30.2342 26.4583 31.7386 27.0394 33.0088 27.5301C33.3411 27.6584 33.6574 27.7806 33.9265 27.9078C35.3111 28.5621 37.3496 29.6328 37.3496 33.0034C37.3496 34.6916 35.9336 37.4248 32.3688 37.4248C27.5804 37.4248 26.3111 34.5499 26.0996 34.0344Z" fill="#2C2D2F"/>
<path d="M13.5996 34.373L16.2855 32.6687C16.4959 33.3029 17.3137 34.4721 18.5003 34.4721C19.6869 34.4721 20.2942 33.2533 20.2942 32.6687V21.1748H23.5974V32.6687C23.6508 34.2541 22.7716 37.4248 18.8911 37.4248C15.3234 37.4248 13.8401 35.3044 13.5996 34.373Z" fill="#2C2D2F"/>
</svg>
