<svg width="48" height="48" viewBox="0 0 48 48" fill="none" xmlns="http://www.w3.org/2000/svg">
<g clip-path="url(#clip0_1669_271)">
<path d="M23.0074 19C22.7425 19 22.4884 19.1052 22.3011 19.2925C22.1138 19.4798 22.0086 19.7339 22.0086 19.9988C22.0086 20.2637 22.1138 20.5177 22.3011 20.705C22.4884 20.8923 22.7425 20.9975 23.0074 20.9975H25.5902L19.3049 27.2828C19.2095 27.375 19.1334 27.4852 19.0811 27.607C19.0287 27.7289 19.0012 27.8599 19 27.9925C18.9989 28.1252 19.0242 28.2567 19.0744 28.3794C19.1246 28.5022 19.1988 28.6137 19.2925 28.7075C19.3863 28.8012 19.4978 28.8754 19.6206 28.9256C19.7433 28.9758 19.8748 29.0011 20.0075 29C20.1401 28.9988 20.2711 28.9713 20.393 28.9189C20.5148 28.8666 20.625 28.7905 20.7172 28.6951L27.0025 22.4098V24.9926C27.0025 25.2575 27.1077 25.5116 27.295 25.6989C27.4823 25.8862 27.7363 25.9914 28.0012 25.9914C28.2661 25.9914 28.5202 25.8862 28.7075 25.6989C28.8948 25.5116 29 25.2575 29 24.9926V19.9988C29 19.7339 28.8948 19.4798 28.7075 19.2925C28.5202 19.1052 28.2661 19 28.0012 19H23.0074Z" fill="black"/>
</g>
<defs>
<clipPath id="clip0_1669_271">
<rect width="10" height="10" fill="white" transform="translate(19 19)"/>
</clipPath>
</defs>
</svg>
