<svg width="48" height="48" viewBox="0 0 48 48" fill="none" xmlns="http://www.w3.org/2000/svg">
<g clip-path="url(#clip0_1666_255)">
<path d="M33 16.3235V31.6765C33 32.0275 32.8606 32.3641 32.6123 32.6123C32.3641 32.8606 32.0275 33 31.6765 33H16.3235C15.9725 33 15.6359 32.8606 15.3877 32.6123C15.1394 32.3641 15 32.0275 15 31.6765V16.3235C15 15.9725 15.1394 15.6359 15.3877 15.3877C15.6359 15.1394 15.9725 15 16.3235 15H31.6765C32.0275 15 32.3641 15.1394 32.6123 15.3877C32.8606 15.6359 33 15.9725 33 16.3235ZM20.2941 21.8824H17.6471V30.3529H20.2941V21.8824ZM20.5324 18.9706C20.5337 18.7704 20.4957 18.5718 20.4204 18.3863C20.345 18.2008 20.2339 18.0319 20.0933 17.8893C19.9527 17.7468 19.7854 17.6333 19.6009 17.5554C19.4165 17.4775 19.2185 17.4367 19.0182 17.4353H18.9706C18.5634 17.4353 18.1729 17.597 17.885 17.885C17.597 18.1729 17.4353 18.5634 17.4353 18.9706C17.4353 19.3778 17.597 19.7683 17.885 20.0562C18.1729 20.3441 18.5634 20.5059 18.9706 20.5059C19.1708 20.5108 19.3701 20.4762 19.557 20.4041C19.7438 20.332 19.9147 20.2238 20.0597 20.0856C20.2047 19.9475 20.3211 19.7821 20.4022 19.599C20.4833 19.4158 20.5275 19.2185 20.5324 19.0182V18.9706ZM30.3529 25.2071C30.3529 22.6606 28.7329 21.6706 27.1235 21.6706C26.5966 21.6442 26.0719 21.7564 25.6019 21.9961C25.1318 22.2358 24.7328 22.5945 24.4447 23.0365H24.3706V21.8824H21.8824V30.3529H24.5294V25.8476C24.4911 25.3862 24.6365 24.9283 24.9339 24.5735C25.2313 24.2186 25.6567 23.9954 26.1176 23.9524H26.2182C27.06 23.9524 27.6847 24.4818 27.6847 25.8159V30.3529H30.3318L30.3529 25.2071Z" fill="white"/>
</g>
<defs>
<clipPath id="clip0_1666_255">
<rect width="48" height="48" fill="white"/>
</clipPath>
</defs>
</svg>
