<svg width="24" height="24" viewBox="0 0 25 25" fill="none" xmlns="http://www.w3.org/2000/svg"><path d="M18.2622 17.4255L14.0192 21.6685C13.8337 21.8542 13.6133 22.0016 13.3708 22.1021C13.1282 22.2027 12.8683 22.2544 12.6057 22.2544C12.3432 22.2544 12.0832 22.2027 11.8407 22.1021C11.5981 22.0016 11.3778 21.8542 11.1922 21.6685L6.94823 17.4255C5.82945 16.3067 5.06756 14.8812 4.75892 13.3294C4.45027 11.7775 4.60872 10.169 5.21423 8.70724C5.81974 7.24545 6.84513 5.99605 8.16071 5.11701C9.47629 4.23798 11.023 3.7688 12.6052 3.7688C14.1875 3.7688 15.7342 4.23798 17.0497 5.11701C18.3653 5.99605 19.3907 7.24545 19.9962 8.70724C20.6017 10.169 20.7602 11.7775 20.4515 13.3294C20.1429 14.8812 19.381 16.3067 18.2622 17.4255V17.4255Z" stroke="#6C6C6C" stroke-width="1.5" stroke-linecap="round" stroke-linejoin="round"></path><path d="M15.6052 11.7686C15.6052 12.5642 15.2892 13.3273 14.7265 13.8899C14.1639 14.4525 13.4009 14.7686 12.6052 14.7686C11.8096 14.7686 11.0465 14.4525 10.4839 13.8899C9.92129 13.3273 9.60522 12.5642 9.60522 11.7686C9.60522 10.9729 9.92129 10.2098 10.4839 9.64723C11.0465 9.08462 11.8096 8.76855 12.6052 8.76855C13.4009 8.76855 14.1639 9.08462 14.7265 9.64723C15.2892 10.2098 15.6052 10.9729 15.6052 11.7686V11.7686Z" stroke="#6C6C6C" stroke-width="1" stroke-linecap="round" stroke-linejoin="round"></path></svg>