<svg width="593" height="200" viewBox="0 0 593 200" fill="none" xmlns="http://www.w3.org/2000/svg">
<path d="M270.088 147.6V116.008L273.432 109.32C273.256 114.424 272.229 118.619 270.352 121.904C268.475 125.189 266.04 127.624 263.048 129.208C260.115 130.792 256.888 131.584 253.368 131.584C250.024 131.584 246.944 130.939 244.128 129.648C241.371 128.357 238.965 126.568 236.912 124.28C234.917 121.992 233.363 119.381 232.248 116.448C231.133 113.456 230.576 110.288 230.576 106.944V105.36C230.576 102.016 231.133 98.9067 232.248 96.032C233.363 93.1573 234.947 90.6347 237 88.464C239.053 86.2347 241.488 84.504 244.304 83.272C247.12 82.04 250.259 81.424 253.72 81.424C257.709 81.424 261.2 82.2747 264.192 83.976C267.243 85.6773 269.648 88.1413 271.408 91.368C273.168 94.5947 274.136 98.5253 274.312 103.16H271.848V83.008H278.536V147.6H270.088ZM254.864 123.84C257.739 123.84 260.349 123.195 262.696 121.904C265.043 120.613 266.92 118.765 268.328 116.36C269.736 113.896 270.44 111.021 270.44 107.736V103.688C270.44 100.461 269.707 97.7333 268.24 95.504C266.832 93.216 264.925 91.4853 262.52 90.312C260.173 89.08 257.621 88.464 254.864 88.464C251.696 88.464 248.909 89.1973 246.504 90.664C244.157 92.1307 242.309 94.2133 240.96 96.912C239.669 99.552 239.024 102.632 239.024 106.152C239.024 109.672 239.699 112.781 241.048 115.48C242.397 118.12 244.275 120.173 246.68 121.64C249.085 123.107 251.813 123.84 254.864 123.84ZM295.296 130V65.76H303.744V130H295.296ZM288.784 72.448V65.76H303.744V72.448H288.784ZM339.924 131.584C335.817 131.584 332.268 130.88 329.276 129.472C326.284 128.064 323.849 126.216 321.972 123.928C320.094 121.581 318.686 118.971 317.748 116.096C316.868 113.221 316.428 110.288 316.428 107.296V105.712C316.428 102.661 316.868 99.6987 317.748 96.824C318.686 93.9493 320.094 91.368 321.972 89.08C323.849 86.7333 326.225 84.8853 329.1 83.536C332.033 82.128 335.465 81.424 339.396 81.424C344.5 81.424 348.694 82.5387 351.98 84.768C355.324 86.9387 357.788 89.7547 359.372 93.216C361.014 96.6773 361.836 100.373 361.836 104.304V108.088H320.124V101.752H355.676L353.74 105.184C353.74 101.84 353.212 98.9653 352.156 96.56C351.1 94.096 349.516 92.1893 347.404 90.84C345.292 89.4907 342.622 88.816 339.396 88.816C336.052 88.816 333.265 89.5787 331.036 91.104C328.865 92.6293 327.222 94.712 326.108 97.352C325.052 99.992 324.524 103.043 324.524 106.504C324.524 109.848 325.052 112.869 326.108 115.568C327.222 118.208 328.924 120.32 331.212 121.904C333.5 123.429 336.404 124.192 339.924 124.192C343.62 124.192 346.612 123.371 348.9 121.728C351.246 120.085 352.654 118.179 353.124 116.008H361.044C360.398 119.235 359.108 122.021 357.172 124.368C355.236 126.715 352.801 128.504 349.868 129.736C346.934 130.968 343.62 131.584 339.924 131.584ZM393.806 131.584C389.7 131.584 386.15 130.88 383.158 129.472C380.166 128.064 377.732 126.216 375.854 123.928C373.977 121.581 372.569 118.971 371.63 116.096C370.75 113.221 370.31 110.288 370.31 107.296V105.712C370.31 102.661 370.75 99.6987 371.63 96.824C372.569 93.9493 373.977 91.368 375.854 89.08C377.732 86.7333 380.108 84.8853 382.982 83.536C385.916 82.128 389.348 81.424 393.278 81.424C398.382 81.424 402.577 82.5387 405.862 84.768C409.206 86.9387 411.67 89.7547 413.254 93.216C414.897 96.6773 415.718 100.373 415.718 104.304V108.088H374.006V101.752H409.558L407.622 105.184C407.622 101.84 407.094 98.9653 406.038 96.56C404.982 94.096 403.398 92.1893 401.286 90.84C399.174 89.4907 396.505 88.816 393.278 88.816C389.934 88.816 387.148 89.5787 384.918 91.104C382.748 92.6293 381.105 94.712 379.99 97.352C378.934 99.992 378.406 103.043 378.406 106.504C378.406 109.848 378.934 112.869 379.99 115.568C381.105 118.208 382.806 120.32 385.094 121.904C387.382 123.429 390.286 124.192 393.806 124.192C397.502 124.192 400.494 123.371 402.782 121.728C405.129 120.085 406.537 118.179 407.006 116.008H414.926C414.281 119.235 412.99 122.021 411.054 124.368C409.118 126.715 406.684 128.504 403.75 129.736C400.817 130.968 397.502 131.584 393.806 131.584ZM425.354 130V119.264H435.562V130H425.354ZM450.057 130V83.008H456.745V103.16H455.689C455.689 98.584 456.276 94.712 457.449 91.544C458.681 88.3173 460.5 85.8533 462.905 84.152C465.31 82.4507 468.361 81.6 472.057 81.6H472.409C476.105 81.6 479.156 82.4507 481.561 84.152C484.025 85.8533 485.844 88.3173 487.017 91.544C488.19 94.712 488.777 98.584 488.777 103.16H486.313C486.313 98.584 486.929 94.712 488.161 91.544C489.393 88.3173 491.212 85.8533 493.617 84.152C496.081 82.4507 499.161 81.6 502.857 81.6H503.209C506.905 81.6 509.985 82.4507 512.449 84.152C514.913 85.8533 516.732 88.3173 517.905 91.544C519.137 94.712 519.753 98.584 519.753 103.16V130H511.305V101.312C511.305 97.4987 510.366 94.5653 508.489 92.512C506.612 90.4 504.001 89.344 500.657 89.344C497.196 89.344 494.409 90.4587 492.297 92.688C490.185 94.8587 489.129 97.9093 489.129 101.84V130H480.681V101.312C480.681 97.4987 479.742 94.5653 477.865 92.512C475.988 90.4 473.377 89.344 470.033 89.344C466.572 89.344 463.785 90.4587 461.673 92.688C459.561 94.8587 458.505 97.9093 458.505 101.84V130H450.057ZM555.197 131.584C551.09 131.584 547.541 130.88 544.549 129.472C541.557 128.064 539.122 126.216 537.245 123.928C535.368 121.581 533.96 118.971 533.021 116.096C532.141 113.221 531.701 110.288 531.701 107.296V105.712C531.701 102.661 532.141 99.6987 533.021 96.824C533.96 93.9493 535.368 91.368 537.245 89.08C539.122 86.7333 541.498 84.8853 544.373 83.536C547.306 82.128 550.738 81.424 554.669 81.424C559.773 81.424 563.968 82.5387 567.253 84.768C570.597 86.9387 573.061 89.7547 574.645 93.216C576.288 96.6773 577.109 100.373 577.109 104.304V108.088H535.397V101.752H570.949L569.013 105.184C569.013 101.84 568.485 98.9653 567.429 96.56C566.373 94.096 564.789 92.1893 562.677 90.84C560.565 89.4907 557.896 88.816 554.669 88.816C551.325 88.816 548.538 89.5787 546.309 91.104C544.138 92.6293 542.496 94.712 541.381 97.352C540.325 99.992 539.797 103.043 539.797 106.504C539.797 109.848 540.325 112.869 541.381 115.568C542.496 118.208 544.197 120.32 546.485 121.904C548.773 123.429 551.677 124.192 555.197 124.192C558.893 124.192 561.885 123.371 564.173 121.728C566.52 120.085 567.928 118.179 568.397 116.008H576.317C575.672 119.235 574.381 122.021 572.445 124.368C570.509 126.715 568.074 128.504 565.141 129.736C562.208 130.968 558.893 131.584 555.197 131.584Z" fill="#2B2D2E"/>
<g filter="url(#filter0_i_638_90)">
<rect x="37" y="70" width="144" height="100" rx="50" fill="#FBBD05"/>
</g>
<g filter="url(#filter1_i_638_90)">
<rect x="37" y="30" width="144" height="100" rx="50" fill="#0B71F1"/>
</g>
<defs>
<filter id="filter0_i_638_90" x="37" y="70" width="144" height="100" filterUnits="userSpaceOnUse" color-interpolation-filters="sRGB">
<feFlood flood-opacity="0" result="BackgroundImageFix"/>
<feBlend mode="normal" in="SourceGraphic" in2="BackgroundImageFix" result="shape"/>
<feColorMatrix in="SourceAlpha" type="matrix" values="0 0 0 0 0 0 0 0 0 0 0 0 0 0 0 0 0 0 127 0" result="hardAlpha"/>
<feOffset dy="-10"/>
<feComposite in2="hardAlpha" operator="arithmetic" k2="-1" k3="1"/>
<feColorMatrix type="matrix" values="0 0 0 0 0 0 0 0 0 0 0 0 0 0 0 0 0 0 0.1 0"/>
<feBlend mode="normal" in2="shape" result="effect1_innerShadow_638_90"/>
</filter>
<filter id="filter1_i_638_90" x="37" y="30" width="144" height="100" filterUnits="userSpaceOnUse" color-interpolation-filters="sRGB">
<feFlood flood-opacity="0" result="BackgroundImageFix"/>
<feBlend mode="normal" in="SourceGraphic" in2="BackgroundImageFix" result="shape"/>
<feColorMatrix in="SourceAlpha" type="matrix" values="0 0 0 0 0 0 0 0 0 0 0 0 0 0 0 0 0 0 127 0" result="hardAlpha"/>
<feOffset dy="-10"/>
<feComposite in2="hardAlpha" operator="arithmetic" k2="-1" k3="1"/>
<feColorMatrix type="matrix" values="0 0 0 0 0 0 0 0 0 0 0 0 0 0 0 0 0 0 0.1 0"/>
<feBlend mode="normal" in2="shape" result="effect1_innerShadow_638_90"/>
</filter>
</defs>
</svg>
