<svg width="648" height="200" viewBox="0 0 648 200" fill="none" xmlns="http://www.w3.org/2000/svg">
<path d="M234.624 130V65.76H243.072V130H234.624ZM228.112 72.448V65.76H243.072V72.448H228.112ZM280.924 131.584C276.817 131.584 273.209 130.88 270.1 129.472C266.99 128.064 264.35 126.216 262.18 123.928C260.068 121.581 258.454 118.971 257.34 116.096C256.284 113.221 255.756 110.288 255.756 107.296V105.712C255.756 102.72 256.313 99.7867 257.428 96.912C258.542 93.9787 260.185 91.368 262.356 89.08C264.526 86.7333 267.166 84.8853 270.276 83.536C273.385 82.128 276.934 81.424 280.924 81.424C284.913 81.424 288.462 82.128 291.572 83.536C294.681 84.8853 297.321 86.7333 299.492 89.08C301.662 91.368 303.305 93.9787 304.42 96.912C305.534 99.7867 306.092 102.72 306.092 105.712V107.296C306.092 110.288 305.534 113.221 304.42 116.096C303.364 118.971 301.75 121.581 299.58 123.928C297.468 126.216 294.857 128.064 291.748 129.472C288.638 130.88 285.03 131.584 280.924 131.584ZM280.924 124.016C284.444 124.016 287.436 123.253 289.9 121.728C292.422 120.144 294.329 118.032 295.62 115.392C296.969 112.752 297.644 109.789 297.644 106.504C297.644 103.16 296.969 100.168 295.62 97.528C294.27 94.888 292.334 92.8053 289.812 91.28C287.348 89.7547 284.385 88.992 280.924 88.992C277.521 88.992 274.558 89.7547 272.036 91.28C269.513 92.8053 267.577 94.888 266.228 97.528C264.878 100.168 264.204 103.16 264.204 106.504C264.204 109.789 264.849 112.752 266.14 115.392C267.489 118.032 269.396 120.144 271.86 121.728C274.382 123.253 277.404 124.016 280.924 124.016ZM340.392 131.584C336.286 131.584 332.678 130.88 329.568 129.472C326.459 128.064 323.819 126.216 321.648 123.928C319.536 121.581 317.923 118.971 316.808 116.096C315.752 113.221 315.224 110.288 315.224 107.296V105.712C315.224 102.72 315.782 99.7867 316.896 96.912C318.011 93.9787 319.654 91.368 321.824 89.08C323.995 86.7333 326.635 84.8853 329.744 83.536C332.854 82.128 336.403 81.424 340.392 81.424C344.382 81.424 347.931 82.128 351.04 83.536C354.15 84.8853 356.79 86.7333 358.96 89.08C361.131 91.368 362.774 93.9787 363.888 96.912C365.003 99.7867 365.56 102.72 365.56 105.712V107.296C365.56 110.288 365.003 113.221 363.888 116.096C362.832 118.971 361.219 121.581 359.048 123.928C356.936 126.216 354.326 128.064 351.216 129.472C348.107 130.88 344.499 131.584 340.392 131.584ZM340.392 124.016C343.912 124.016 346.904 123.253 349.368 121.728C351.891 120.144 353.798 118.032 355.088 115.392C356.438 112.752 357.112 109.789 357.112 106.504C357.112 103.16 356.438 100.168 355.088 97.528C353.739 94.888 351.803 92.8053 349.28 91.28C346.816 89.7547 343.854 88.992 340.392 88.992C336.99 88.992 334.027 89.7547 331.504 91.28C328.982 92.8053 327.046 94.888 325.696 97.528C324.347 100.168 323.672 103.16 323.672 106.504C323.672 109.789 324.318 112.752 325.608 115.392C326.958 118.032 328.864 120.144 331.328 121.728C333.851 123.253 336.872 124.016 340.392 124.016ZM378.213 147.6V83.008H384.901V103.336L383.317 103.16C383.611 98.1147 384.667 94.008 386.485 90.84C388.363 87.6133 390.797 85.2373 393.789 83.712C396.781 82.1867 400.037 81.424 403.557 81.424C406.96 81.424 410.04 82.0693 412.797 83.36C415.613 84.6507 418.019 86.4107 420.013 88.64C422.008 90.8693 423.533 93.4507 424.589 96.384C425.645 99.3173 426.173 102.427 426.173 105.712V107.296C426.173 110.581 425.616 113.691 424.501 116.624C423.387 119.557 421.803 122.139 419.749 124.368C417.755 126.597 415.349 128.357 412.533 129.648C409.776 130.939 406.725 131.584 403.381 131.584C400.037 131.584 396.84 130.851 393.789 129.384C390.739 127.917 388.216 125.541 386.221 122.256C384.227 118.971 383.083 114.659 382.789 109.32L386.661 116.36V147.6H378.213ZM402.061 124.192C405.229 124.192 407.987 123.459 410.333 121.992C412.68 120.467 414.499 118.384 415.789 115.744C417.08 113.045 417.725 109.965 417.725 106.504C417.725 102.984 417.08 99.904 415.789 97.264C414.499 94.624 412.68 92.5707 410.333 91.104C407.987 89.5787 405.229 88.816 402.061 88.816C399.245 88.816 396.635 89.4613 394.229 90.752C391.824 91.984 389.888 93.8027 388.421 96.208C387.013 98.5547 386.309 101.4 386.309 104.744V108.792C386.309 112.019 387.043 114.776 388.509 117.064C389.976 119.352 391.912 121.112 394.317 122.344C396.723 123.576 399.304 124.192 402.061 124.192ZM436.01 130V119.264H446.218V130H436.01ZM460.713 130V83.008H467.401V103.16H466.345C466.345 98.584 466.932 94.712 468.105 91.544C469.337 88.3173 471.156 85.8533 473.561 84.152C475.967 82.4507 479.017 81.6 482.713 81.6H483.065C486.761 81.6 489.812 82.4507 492.217 84.152C494.681 85.8533 496.5 88.3173 497.673 91.544C498.847 94.712 499.433 98.584 499.433 103.16H496.969C496.969 98.584 497.585 94.712 498.817 91.544C500.049 88.3173 501.868 85.8533 504.273 84.152C506.737 82.4507 509.817 81.6 513.513 81.6H513.865C517.561 81.6 520.641 82.4507 523.105 84.152C525.569 85.8533 527.388 88.3173 528.561 91.544C529.793 94.712 530.409 98.584 530.409 103.16V130H521.961V101.312C521.961 97.4987 521.023 94.5653 519.145 92.512C517.268 90.4 514.657 89.344 511.313 89.344C507.852 89.344 505.065 90.4587 502.953 92.688C500.841 94.8587 499.785 97.9093 499.785 101.84V130H491.337V101.312C491.337 97.4987 490.399 94.5653 488.521 92.512C486.644 90.4 484.033 89.344 480.689 89.344C477.228 89.344 474.441 90.4587 472.329 92.688C470.217 94.8587 469.161 97.9093 469.161 101.84V130H460.713ZM565.853 131.584C561.747 131.584 558.197 130.88 555.205 129.472C552.213 128.064 549.779 126.216 547.901 123.928C546.024 121.581 544.616 118.971 543.677 116.096C542.797 113.221 542.357 110.288 542.357 107.296V105.712C542.357 102.661 542.797 99.6987 543.677 96.824C544.616 93.9493 546.024 91.368 547.901 89.08C549.779 86.7333 552.155 84.8853 555.029 83.536C557.963 82.128 561.395 81.424 565.325 81.424C570.429 81.424 574.624 82.5387 577.909 84.768C581.253 86.9387 583.717 89.7547 585.301 93.216C586.944 96.6773 587.765 100.373 587.765 104.304V108.088H546.053V101.752H581.605L579.669 105.184C579.669 101.84 579.141 98.9653 578.085 96.56C577.029 94.096 575.445 92.1893 573.333 90.84C571.221 89.4907 568.552 88.816 565.325 88.816C561.981 88.816 559.195 89.5787 556.965 91.104C554.795 92.6293 553.152 94.712 552.037 97.352C550.981 99.992 550.453 103.043 550.453 106.504C550.453 109.848 550.981 112.869 552.037 115.568C553.152 118.208 554.853 120.32 557.141 121.904C559.429 123.429 562.333 124.192 565.853 124.192C569.549 124.192 572.541 123.371 574.829 121.728C577.176 120.085 578.584 118.179 579.053 116.008H586.973C586.328 119.235 585.037 122.021 583.101 124.368C581.165 126.715 578.731 128.504 575.797 129.736C572.864 130.968 569.549 131.584 565.853 131.584Z" fill="#2B2D2E"/>
<g filter="url(#filter0_i_622_186)">
<rect x="37" y="70" width="144" height="100" rx="50" fill="#FBBD05"/>
</g>
<g filter="url(#filter1_i_622_186)">
<rect x="37" y="30" width="144" height="100" rx="50" fill="#0B71F1"/>
</g>
<defs>
<filter id="filter0_i_622_186" x="37" y="70" width="144" height="100" filterUnits="userSpaceOnUse" color-interpolation-filters="sRGB">
<feFlood flood-opacity="0" result="BackgroundImageFix"/>
<feBlend mode="normal" in="SourceGraphic" in2="BackgroundImageFix" result="shape"/>
<feColorMatrix in="SourceAlpha" type="matrix" values="0 0 0 0 0 0 0 0 0 0 0 0 0 0 0 0 0 0 127 0" result="hardAlpha"/>
<feOffset dy="-10"/>
<feComposite in2="hardAlpha" operator="arithmetic" k2="-1" k3="1"/>
<feColorMatrix type="matrix" values="0 0 0 0 0 0 0 0 0 0 0 0 0 0 0 0 0 0 0.1 0"/>
<feBlend mode="normal" in2="shape" result="effect1_innerShadow_622_186"/>
</filter>
<filter id="filter1_i_622_186" x="37" y="30" width="144" height="100" filterUnits="userSpaceOnUse" color-interpolation-filters="sRGB">
<feFlood flood-opacity="0" result="BackgroundImageFix"/>
<feBlend mode="normal" in="SourceGraphic" in2="BackgroundImageFix" result="shape"/>
<feColorMatrix in="SourceAlpha" type="matrix" values="0 0 0 0 0 0 0 0 0 0 0 0 0 0 0 0 0 0 127 0" result="hardAlpha"/>
<feOffset dy="-10"/>
<feComposite in2="hardAlpha" operator="arithmetic" k2="-1" k3="1"/>
<feColorMatrix type="matrix" values="0 0 0 0 0 0 0 0 0 0 0 0 0 0 0 0 0 0 0.1 0"/>
<feBlend mode="normal" in2="shape" result="effect1_innerShadow_622_186"/>
</filter>
</defs>
</svg>
