<svg width="648" height="200" viewBox="0 0 648 200" fill="none" xmlns="http://www.w3.org/2000/svg">
<path d="M270.088 147.6V116.008L273.432 109.32C273.256 114.424 272.229 118.619 270.352 121.904C268.475 125.189 266.04 127.624 263.048 129.208C260.115 130.792 256.888 131.584 253.368 131.584C250.024 131.584 246.944 130.939 244.128 129.648C241.371 128.357 238.965 126.568 236.912 124.28C234.917 121.992 233.363 119.381 232.248 116.448C231.133 113.456 230.576 110.288 230.576 106.944V105.36C230.576 102.016 231.133 98.9067 232.248 96.032C233.363 93.1573 234.947 90.6347 237 88.464C239.053 86.2347 241.488 84.504 244.304 83.272C247.12 82.04 250.259 81.424 253.72 81.424C257.709 81.424 261.2 82.2747 264.192 83.976C267.243 85.6773 269.648 88.1413 271.408 91.368C273.168 94.5947 274.136 98.5253 274.312 103.16H271.848V83.008H278.536V147.6H270.088ZM254.864 123.84C257.739 123.84 260.349 123.195 262.696 121.904C265.043 120.613 266.92 118.765 268.328 116.36C269.736 113.896 270.44 111.021 270.44 107.736V103.688C270.44 100.461 269.707 97.7333 268.24 95.504C266.832 93.216 264.925 91.4853 262.52 90.312C260.173 89.08 257.621 88.464 254.864 88.464C251.696 88.464 248.909 89.1973 246.504 90.664C244.157 92.1307 242.309 94.2133 240.96 96.912C239.669 99.552 239.024 102.632 239.024 106.152C239.024 109.672 239.699 112.781 241.048 115.48C242.397 118.12 244.275 120.173 246.68 121.64C249.085 123.107 251.813 123.84 254.864 123.84ZM311.048 131.408C305.475 131.408 301.192 129.589 298.2 125.952C295.208 122.315 293.712 117.064 293.712 110.2V82.92H302.16V111.872C302.16 115.568 303.157 118.472 305.152 120.584C307.147 122.637 309.845 123.664 313.248 123.664C316.768 123.664 319.643 122.549 321.872 120.32C324.101 118.032 325.216 114.923 325.216 110.992V82.92H333.664V130H326.976V109.848H328.032C328.032 114.483 327.416 118.413 326.184 121.64C324.952 124.808 323.104 127.243 320.64 128.944C318.235 130.587 315.155 131.408 311.4 131.408H311.048ZM368.33 130.528C364.81 130.528 361.759 130.029 359.178 129.032C356.655 128.035 354.69 126.333 353.282 123.928C351.932 121.464 351.258 118.149 351.258 113.984V68.752H359.354V115.04C359.354 117.563 360.028 119.528 361.378 120.936C362.786 122.285 364.751 122.96 367.274 122.96H375.546V130.528H368.33ZM343.162 89.344V83.008H375.546V89.344H343.162ZM384.326 148.304V140.736H391.102C393.097 140.736 394.769 140.472 396.118 139.944C397.526 139.475 398.67 138.653 399.55 137.48C400.489 136.307 401.252 134.752 401.838 132.816L416.622 83.008H424.894L409.23 135.016C408.292 138.125 406.972 140.648 405.27 142.584C403.569 144.579 401.486 146.016 399.022 146.896C396.617 147.835 393.801 148.304 390.574 148.304H384.326ZM398.67 128.944V121.904H408.878V128.944H398.67ZM397.79 128.944L380.982 83.008H389.606L405.71 128.944H397.79ZM430.596 130V119.264H440.804V130H430.596ZM455.299 130V83.008H461.987V103.16H460.931C460.931 98.584 461.518 94.712 462.691 91.544C463.923 88.3173 465.742 85.8533 468.147 84.152C470.552 82.4507 473.603 81.6 477.299 81.6H477.651C481.347 81.6 484.398 82.4507 486.803 84.152C489.267 85.8533 491.086 88.3173 492.259 91.544C493.432 94.712 494.019 98.584 494.019 103.16H491.555C491.555 98.584 492.171 94.712 493.403 91.544C494.635 88.3173 496.454 85.8533 498.859 84.152C501.323 82.4507 504.403 81.6 508.099 81.6H508.451C512.147 81.6 515.227 82.4507 517.691 84.152C520.155 85.8533 521.974 88.3173 523.147 91.544C524.379 94.712 524.995 98.584 524.995 103.16V130H516.547V101.312C516.547 97.4987 515.608 94.5653 513.731 92.512C511.854 90.4 509.243 89.344 505.899 89.344C502.438 89.344 499.651 90.4587 497.539 92.688C495.427 94.8587 494.371 97.9093 494.371 101.84V130H485.923V101.312C485.923 97.4987 484.984 94.5653 483.107 92.512C481.23 90.4 478.619 89.344 475.275 89.344C471.814 89.344 469.027 90.4587 466.915 92.688C464.803 94.8587 463.747 97.9093 463.747 101.84V130H455.299ZM560.439 131.584C556.333 131.584 552.783 130.88 549.791 129.472C546.799 128.064 544.365 126.216 542.487 123.928C540.61 121.581 539.202 118.971 538.263 116.096C537.383 113.221 536.943 110.288 536.943 107.296V105.712C536.943 102.661 537.383 99.6987 538.263 96.824C539.202 93.9493 540.61 91.368 542.487 89.08C544.365 86.7333 546.741 84.8853 549.615 83.536C552.549 82.128 555.981 81.424 559.911 81.424C565.015 81.424 569.21 82.5387 572.495 84.768C575.839 86.9387 578.303 89.7547 579.887 93.216C581.53 96.6773 582.351 100.373 582.351 104.304V108.088H540.639V101.752H576.191L574.255 105.184C574.255 101.84 573.727 98.9653 572.671 96.56C571.615 94.096 570.031 92.1893 567.919 90.84C565.807 89.4907 563.138 88.816 559.911 88.816C556.567 88.816 553.781 89.5787 551.551 91.104C549.381 92.6293 547.738 94.712 546.623 97.352C545.567 99.992 545.039 103.043 545.039 106.504C545.039 109.848 545.567 112.869 546.623 115.568C547.738 118.208 549.439 120.32 551.727 121.904C554.015 123.429 556.919 124.192 560.439 124.192C564.135 124.192 567.127 123.371 569.415 121.728C571.762 120.085 573.17 118.179 573.639 116.008H581.559C580.914 119.235 579.623 122.021 577.687 124.368C575.751 126.715 573.317 128.504 570.383 129.736C567.45 130.968 564.135 131.584 560.439 131.584Z" fill="#2B2D2E"/>
<g filter="url(#filter0_i_635_85)">
<rect x="37" y="70" width="144" height="100" rx="50" fill="#FBBD05"/>
</g>
<g filter="url(#filter1_i_635_85)">
<rect x="37" y="30" width="144" height="100" rx="50" fill="#0B71F1"/>
</g>
<defs>
<filter id="filter0_i_635_85" x="37" y="70" width="144" height="100" filterUnits="userSpaceOnUse" color-interpolation-filters="sRGB">
<feFlood flood-opacity="0" result="BackgroundImageFix"/>
<feBlend mode="normal" in="SourceGraphic" in2="BackgroundImageFix" result="shape"/>
<feColorMatrix in="SourceAlpha" type="matrix" values="0 0 0 0 0 0 0 0 0 0 0 0 0 0 0 0 0 0 127 0" result="hardAlpha"/>
<feOffset dy="-10"/>
<feComposite in2="hardAlpha" operator="arithmetic" k2="-1" k3="1"/>
<feColorMatrix type="matrix" values="0 0 0 0 0 0 0 0 0 0 0 0 0 0 0 0 0 0 0.1 0"/>
<feBlend mode="normal" in2="shape" result="effect1_innerShadow_635_85"/>
</filter>
<filter id="filter1_i_635_85" x="37" y="30" width="144" height="100" filterUnits="userSpaceOnUse" color-interpolation-filters="sRGB">
<feFlood flood-opacity="0" result="BackgroundImageFix"/>
<feBlend mode="normal" in="SourceGraphic" in2="BackgroundImageFix" result="shape"/>
<feColorMatrix in="SourceAlpha" type="matrix" values="0 0 0 0 0 0 0 0 0 0 0 0 0 0 0 0 0 0 127 0" result="hardAlpha"/>
<feOffset dy="-10"/>
<feComposite in2="hardAlpha" operator="arithmetic" k2="-1" k3="1"/>
<feColorMatrix type="matrix" values="0 0 0 0 0 0 0 0 0 0 0 0 0 0 0 0 0 0 0.1 0"/>
<feBlend mode="normal" in2="shape" result="effect1_innerShadow_635_85"/>
</filter>
</defs>
</svg>
