<svg width="320" height="306" viewBox="0 0 320 306" fill="none" xmlns="http://www.w3.org/2000/svg">
<g filter="url(#filter0_i_717_195)">
<rect width="320" height="66" rx="22" fill="white"/>
</g>
<path d="M64 33C64 44.0457 55.0457 53 44 53C32.9543 53 24 44.0457 24 33C24 21.9543 32.9543 13 44 13C55.0457 13 64 21.9543 64 33Z" fill="#1ED760"/>
<path d="M53.0919 41.0328C52.7502 41.575 52.0213 41.7268 51.4518 41.4015C46.9642 38.799 41.3377 38.2135 34.686 39.6448C34.0482 39.775 33.4104 39.4063 33.2737 38.799C33.137 38.1918 33.5243 37.5846 34.1621 37.4545C41.4288 35.8713 47.6704 36.5436 52.6819 39.4713C53.2514 39.7966 53.4336 40.4906 53.0919 41.0328ZM55.4154 36.0882C54.9826 36.7605 54.0714 36.9557 53.3653 36.5653C48.2399 33.5508 40.4265 32.6833 34.3671 34.44C33.5699 34.6568 32.7498 34.2448 32.522 33.5074C32.2942 32.7484 32.727 31.9677 33.5243 31.7508C40.4493 29.7556 49.0599 30.7098 54.9598 34.158C55.6204 34.5484 55.8482 35.4159 55.4154 36.0882ZM55.6204 30.9267C49.47 27.4568 39.3331 27.1315 33.456 28.8231C32.522 29.105 31.5197 28.6062 31.2236 27.6953C30.9274 26.8062 31.4741 25.852 32.4081 25.57C39.1508 23.6182 50.3584 24.0086 57.42 27.999C58.2629 28.4761 58.5362 29.517 58.0351 30.3195C57.5567 31.1436 56.4633 31.4255 55.6204 30.9267Z" fill="white"/>
<path d="M75.2961 29.6V17.92H77.3761L80.8321 25.712H81.0881L84.5281 17.92H86.6241V29.6H85.0561V19.632L85.1681 19.664L81.8561 27.184H79.9361L76.6081 19.664L76.7361 19.632V29.6H75.2961ZM94.9588 29.6V27.04H94.7028V24.08C94.7028 23.4933 94.5482 23.0507 94.2388 22.752C93.9402 22.4533 93.4975 22.304 92.9108 22.304C92.5802 22.304 92.2388 22.3093 91.8868 22.32C91.5348 22.3307 91.1988 22.3413 90.8788 22.352C90.5588 22.3627 90.2815 22.3787 90.0468 22.4V21.056C90.2815 21.0347 90.5268 21.0187 90.7828 21.008C91.0495 20.9867 91.3215 20.976 91.5988 20.976C91.8762 20.9653 92.1428 20.96 92.3988 20.96C93.2735 20.96 93.9882 21.0667 94.5428 21.28C95.0975 21.4827 95.5082 21.8187 95.7748 22.288C96.0415 22.7573 96.1748 23.392 96.1748 24.192V29.6H94.9588ZM92.1588 29.824C91.5188 29.824 90.9642 29.7173 90.4948 29.504C90.0362 29.28 89.6788 28.96 89.4228 28.544C89.1775 28.128 89.0548 27.6267 89.0548 27.04C89.0548 26.432 89.1882 25.9253 89.4548 25.52C89.7322 25.1147 90.1322 24.8107 90.6548 24.608C91.1775 24.3947 91.8068 24.288 92.5428 24.288H94.8628V25.44H92.4788C91.8602 25.44 91.3855 25.5893 91.0548 25.888C90.7242 26.1867 90.5588 26.5707 90.5588 27.04C90.5588 27.5093 90.7242 27.888 91.0548 28.176C91.3855 28.464 91.8602 28.608 92.4788 28.608C92.8415 28.608 93.1882 28.544 93.5188 28.416C93.8495 28.2773 94.1215 28.0533 94.3348 27.744C94.5588 27.424 94.6815 26.9867 94.7028 26.432L95.1188 27.04C95.0655 27.648 94.9162 28.16 94.6708 28.576C94.4362 28.9813 94.1055 29.2907 93.6788 29.504C93.2628 29.7173 92.7562 29.824 92.1588 29.824ZM102.635 32.8V21.056H103.851V24.752L103.563 24.72C103.616 23.8027 103.808 23.056 104.139 22.48C104.48 21.8933 104.923 21.4613 105.467 21.184C106.011 20.9067 106.603 20.768 107.243 20.768C107.861 20.768 108.421 20.8853 108.923 21.12C109.435 21.3547 109.872 21.6747 110.235 22.08C110.597 22.4853 110.875 22.9547 111.067 23.488C111.259 24.0213 111.355 24.5867 111.355 25.184V25.472C111.355 26.0693 111.253 26.6347 111.051 27.168C110.848 27.7013 110.56 28.1707 110.187 28.576C109.824 28.9813 109.387 29.3013 108.875 29.536C108.373 29.7707 107.819 29.888 107.211 29.888C106.603 29.888 106.021 29.7547 105.467 29.488C104.912 29.2213 104.453 28.7893 104.091 28.192C103.728 27.5947 103.52 26.8107 103.467 25.84L104.171 27.12V32.8H102.635ZM106.971 28.544C107.547 28.544 108.048 28.4107 108.475 28.144C108.901 27.8667 109.232 27.488 109.467 27.008C109.701 26.5173 109.819 25.9573 109.819 25.328C109.819 24.688 109.701 24.128 109.467 23.648C109.232 23.168 108.901 22.7947 108.475 22.528C108.048 22.2507 107.547 22.112 106.971 22.112C106.459 22.112 105.984 22.2293 105.547 22.464C105.109 22.688 104.757 23.0187 104.491 23.456C104.235 23.8827 104.107 24.4 104.107 25.008V25.744C104.107 26.3307 104.24 26.832 104.507 27.248C104.773 27.664 105.125 27.984 105.563 28.208C106 28.432 106.469 28.544 106.971 28.544ZM113.762 29.6V17.92H115.298V29.6H113.762ZM112.578 19.136V17.92H115.298V19.136H112.578ZM123.412 29.6V27.04H123.156V24.08C123.156 23.4933 123.001 23.0507 122.692 22.752C122.393 22.4533 121.951 22.304 121.364 22.304C121.033 22.304 120.692 22.3093 120.34 22.32C119.988 22.3307 119.652 22.3413 119.332 22.352C119.012 22.3627 118.735 22.3787 118.5 22.4V21.056C118.735 21.0347 118.98 21.0187 119.236 21.008C119.503 20.9867 119.775 20.976 120.052 20.976C120.329 20.9653 120.596 20.96 120.852 20.96C121.727 20.96 122.441 21.0667 122.996 21.28C123.551 21.4827 123.961 21.8187 124.228 22.288C124.495 22.7573 124.628 23.392 124.628 24.192V29.6H123.412ZM120.612 29.824C119.972 29.824 119.417 29.7173 118.948 29.504C118.489 29.28 118.132 28.96 117.876 28.544C117.631 28.128 117.508 27.6267 117.508 27.04C117.508 26.432 117.641 25.9253 117.908 25.52C118.185 25.1147 118.585 24.8107 119.108 24.608C119.631 24.3947 120.26 24.288 120.996 24.288H123.316V25.44H120.932C120.313 25.44 119.839 25.5893 119.508 25.888C119.177 26.1867 119.012 26.5707 119.012 27.04C119.012 27.5093 119.177 27.888 119.508 28.176C119.839 28.464 120.313 28.608 120.932 28.608C121.295 28.608 121.641 28.544 121.972 28.416C122.303 28.2773 122.575 28.0533 122.788 27.744C123.012 27.424 123.135 26.9867 123.156 26.432L123.572 27.04C123.519 27.648 123.369 28.16 123.124 28.576C122.889 28.9813 122.559 29.2907 122.132 29.504C121.716 29.7173 121.209 29.824 120.612 29.824ZM126.84 32.928V31.552H128.072C128.435 31.552 128.739 31.504 128.984 31.408C129.24 31.3227 129.448 31.1733 129.608 30.96C129.779 30.7467 129.917 30.464 130.024 30.112L132.712 21.056H134.216L131.368 30.512C131.197 31.0773 130.957 31.536 130.648 31.888C130.339 32.2507 129.96 32.512 129.512 32.672C129.075 32.8427 128.563 32.928 127.976 32.928H126.84ZM129.448 29.408V28.128H131.304V29.408H129.448ZM129.288 29.408L126.232 21.056H127.8L130.728 29.408H129.288ZM136.262 29.6V17.92H137.798V29.6H136.262ZM135.078 19.136V17.92H137.798V19.136H135.078ZM141.16 29.6V21.056H142.696V29.6H141.16ZM139.848 22.272V21.056H142.696V22.272H139.848ZM141.592 19.68C141.251 19.68 140.995 19.5893 140.824 19.408C140.664 19.2267 140.584 18.9973 140.584 18.72C140.584 18.4427 140.664 18.2133 140.824 18.032C140.995 17.8507 141.251 17.76 141.592 17.76C141.933 17.76 142.184 17.8507 142.344 18.032C142.515 18.2133 142.6 18.4427 142.6 18.72C142.6 18.9973 142.515 19.2267 142.344 19.408C142.184 19.5893 141.933 19.68 141.592 19.68ZM148.466 29.856C147.346 29.856 146.477 29.616 145.858 29.136C145.25 28.656 144.935 28 144.914 27.168H146.354C146.375 27.4987 146.541 27.8133 146.85 28.112C147.17 28.4 147.709 28.544 148.466 28.544C149.149 28.544 149.671 28.4107 150.034 28.144C150.397 27.8667 150.578 27.5307 150.578 27.136C150.578 26.784 150.445 26.512 150.178 26.32C149.911 26.1173 149.479 25.984 148.882 25.92L147.954 25.824C147.143 25.7387 146.482 25.4987 145.97 25.104C145.458 24.6987 145.202 24.1333 145.202 23.408C145.202 22.864 145.341 22.4 145.618 22.016C145.895 21.6213 146.279 21.3227 146.77 21.12C147.261 20.9067 147.826 20.8 148.466 20.8C149.426 20.8 150.205 21.0133 150.802 21.44C151.399 21.8667 151.709 22.5013 151.73 23.344H150.29C150.279 23.0027 150.119 22.7147 149.81 22.48C149.511 22.2347 149.063 22.112 148.466 22.112C147.869 22.112 147.415 22.2347 147.106 22.48C146.797 22.7253 146.642 23.0347 146.642 23.408C146.642 23.728 146.749 23.984 146.962 24.176C147.186 24.368 147.549 24.4907 148.05 24.544L148.978 24.64C149.895 24.736 150.631 24.992 151.186 25.408C151.741 25.8133 152.018 26.3893 152.018 27.136C152.018 27.6693 151.863 28.144 151.554 28.56C151.255 28.9653 150.839 29.2853 150.306 29.52C149.773 29.744 149.159 29.856 148.466 29.856ZM157.572 29.696C156.932 29.696 156.377 29.6053 155.908 29.424C155.449 29.2427 155.092 28.9333 154.836 28.496C154.591 28.048 154.468 27.4453 154.468 26.688V18.464H155.94V26.88C155.94 27.3387 156.063 27.696 156.308 27.952C156.564 28.1973 156.921 28.32 157.38 28.32H158.884V29.696H157.572ZM152.996 22.208V21.056H158.884V22.208H152.996Z" fill="black"/>
<path d="M80.6141 51.4V46.374L81.1461 45.31C81.1181 46.122 80.9548 46.7893 80.6561 47.312C80.3574 47.8347 79.9701 48.222 79.4941 48.474C79.0274 48.726 78.5141 48.852 77.9541 48.852C77.4221 48.852 76.9321 48.7493 76.4841 48.544C76.0454 48.3387 75.6628 48.054 75.3361 47.69C75.0188 47.326 74.7714 46.9107 74.5941 46.444C74.4168 45.968 74.3281 45.464 74.3281 44.932V44.68C74.3281 44.148 74.4168 43.6533 74.5941 43.196C74.7714 42.7387 75.0234 42.3373 75.3501 41.992C75.6768 41.6373 76.0641 41.362 76.5121 41.166C76.9601 40.97 77.4594 40.872 78.0101 40.872C78.6448 40.872 79.2001 41.0073 79.6761 41.278C80.1614 41.5487 80.5441 41.9407 80.8241 42.454C81.1041 42.9673 81.2581 43.5927 81.2861 44.33H80.8941V41.124H81.9581V51.4H80.6141ZM78.1921 47.62C78.6494 47.62 79.0648 47.5173 79.4381 47.312C79.8114 47.1067 80.1101 46.8127 80.3341 46.43C80.5581 46.038 80.6701 45.5807 80.6701 45.058V44.414C80.6701 43.9007 80.5534 43.4667 80.3201 43.112C80.0961 42.748 79.7928 42.4727 79.4101 42.286C79.0368 42.09 78.6308 41.992 78.1921 41.992C77.6881 41.992 77.2448 42.1087 76.8621 42.342C76.4888 42.5753 76.1948 42.9067 75.9801 43.336C75.7748 43.756 75.6721 44.246 75.6721 44.806C75.6721 45.366 75.7794 45.8607 75.9941 46.29C76.2088 46.71 76.5074 47.0367 76.8901 47.27C77.2728 47.5033 77.7068 47.62 78.1921 47.62ZM84.6244 48.6V38.38H85.9684V48.6H84.6244ZM83.5884 39.444V38.38H85.9684V39.444H83.5884ZM91.7243 48.852C91.071 48.852 90.5063 48.74 90.0303 48.516C89.5543 48.292 89.167 47.998 88.8683 47.634C88.5696 47.2607 88.3456 46.8453 88.1963 46.388C88.0563 45.9307 87.9863 45.464 87.9863 44.988V44.736C87.9863 44.2507 88.0563 43.7793 88.1963 43.322C88.3456 42.8647 88.5696 42.454 88.8683 42.09C89.167 41.7167 89.545 41.4227 90.0023 41.208C90.469 40.984 91.015 40.872 91.6403 40.872C92.4523 40.872 93.1196 41.0493 93.6423 41.404C94.1743 41.7493 94.5663 42.1973 94.8183 42.748C95.0796 43.2987 95.2103 43.8867 95.2103 44.512V45.114H88.5743V44.106H94.2303L93.9223 44.652C93.9223 44.12 93.8383 43.6627 93.6703 43.28C93.5023 42.888 93.2503 42.5847 92.9143 42.37C92.5783 42.1553 92.1536 42.048 91.6403 42.048C91.1083 42.048 90.665 42.1693 90.3103 42.412C89.965 42.6547 89.7036 42.986 89.5263 43.406C89.3583 43.826 89.2743 44.3113 89.2743 44.862C89.2743 45.394 89.3583 45.8747 89.5263 46.304C89.7036 46.724 89.9743 47.06 90.3383 47.312C90.7023 47.5547 91.1643 47.676 91.7243 47.676C92.3123 47.676 92.7883 47.5453 93.1523 47.284C93.5256 47.0227 93.7496 46.7193 93.8243 46.374H95.0843C94.9816 46.8873 94.7763 47.3307 94.4683 47.704C94.1603 48.0773 93.773 48.362 93.3063 48.558C92.8396 48.754 92.3123 48.852 91.7243 48.852ZM100.297 48.852C99.6432 48.852 99.0786 48.74 98.6026 48.516C98.1266 48.292 97.7392 47.998 97.4406 47.634C97.1419 47.2607 96.9179 46.8453 96.7686 46.388C96.6286 45.9307 96.5586 45.464 96.5586 44.988V44.736C96.5586 44.2507 96.6286 43.7793 96.7686 43.322C96.9179 42.8647 97.1419 42.454 97.4406 42.09C97.7392 41.7167 98.1172 41.4227 98.5746 41.208C99.0412 40.984 99.5872 40.872 100.213 40.872C101.025 40.872 101.692 41.0493 102.215 41.404C102.747 41.7493 103.139 42.1973 103.391 42.748C103.652 43.2987 103.783 43.8867 103.783 44.512V45.114H97.1466V44.106H102.803L102.495 44.652C102.495 44.12 102.411 43.6627 102.243 43.28C102.075 42.888 101.823 42.5847 101.487 42.37C101.151 42.1553 100.726 42.048 100.213 42.048C99.6806 42.048 99.2372 42.1693 98.8826 42.412C98.5372 42.6547 98.2759 42.986 98.0986 43.406C97.9306 43.826 97.8466 44.3113 97.8466 44.862C97.8466 45.394 97.9306 45.8747 98.0986 46.304C98.2759 46.724 98.5466 47.06 98.9106 47.312C99.2746 47.5547 99.7366 47.676 100.297 47.676C100.885 47.676 101.361 47.5453 101.725 47.284C102.098 47.0227 102.322 46.7193 102.397 46.374H103.657C103.554 46.8873 103.349 47.3307 103.041 47.704C102.733 48.0773 102.345 48.362 101.879 48.558C101.412 48.754 100.885 48.852 100.297 48.852ZM105.315 48.6V46.892H106.939V48.6H105.315ZM109.246 48.6V41.124H110.31V44.33H110.142C110.142 43.602 110.235 42.986 110.422 42.482C110.618 41.9687 110.907 41.5767 111.29 41.306C111.672 41.0353 112.158 40.9 112.746 40.9H112.802C113.39 40.9 113.875 41.0353 114.258 41.306C114.65 41.5767 114.939 41.9687 115.126 42.482C115.312 42.986 115.406 43.602 115.406 44.33H115.014C115.014 43.602 115.112 42.986 115.308 42.482C115.504 41.9687 115.793 41.5767 116.176 41.306C116.568 41.0353 117.058 40.9 117.646 40.9H117.702C118.29 40.9 118.78 41.0353 119.172 41.306C119.564 41.5767 119.853 41.9687 120.04 42.482C120.236 42.986 120.334 43.602 120.334 44.33V48.6H118.99V44.036C118.99 43.4293 118.84 42.9627 118.542 42.636C118.243 42.3 117.828 42.132 117.296 42.132C116.745 42.132 116.302 42.3093 115.966 42.664C115.63 43.0093 115.462 43.4947 115.462 44.12V48.6H114.118V44.036C114.118 43.4293 113.968 42.9627 113.67 42.636C113.371 42.3 112.956 42.132 112.424 42.132C111.873 42.132 111.43 42.3093 111.094 42.664C110.758 43.0093 110.59 43.4947 110.59 44.12V48.6H109.246ZM125.972 48.852C125.319 48.852 124.754 48.74 124.278 48.516C123.802 48.292 123.415 47.998 123.116 47.634C122.818 47.2607 122.594 46.8453 122.444 46.388C122.304 45.9307 122.234 45.464 122.234 44.988V44.736C122.234 44.2507 122.304 43.7793 122.444 43.322C122.594 42.8647 122.818 42.454 123.116 42.09C123.415 41.7167 123.793 41.4227 124.25 41.208C124.717 40.984 125.263 40.872 125.888 40.872C126.7 40.872 127.368 41.0493 127.89 41.404C128.422 41.7493 128.814 42.1973 129.066 42.748C129.328 43.2987 129.458 43.8867 129.458 44.512V45.114H122.822V44.106H128.478L128.17 44.652C128.17 44.12 128.086 43.6627 127.918 43.28C127.75 42.888 127.498 42.5847 127.162 42.37C126.826 42.1553 126.402 42.048 125.888 42.048C125.356 42.048 124.913 42.1693 124.558 42.412C124.213 42.6547 123.952 42.986 123.774 43.406C123.606 43.826 123.522 44.3113 123.522 44.862C123.522 45.394 123.606 45.8747 123.774 46.304C123.952 46.724 124.222 47.06 124.586 47.312C124.95 47.5547 125.412 47.676 125.972 47.676C126.56 47.676 127.036 47.5453 127.4 47.284C127.774 47.0227 127.998 46.7193 128.072 46.374H129.332C129.23 46.8873 129.024 47.3307 128.716 47.704C128.408 48.0773 128.021 48.362 127.554 48.558C127.088 48.754 126.56 48.852 125.972 48.852ZM130.429 49.44L133.285 37.68H134.545L131.689 49.44H130.429ZM136.179 48.6V41.124H137.243V44.33H137.075C137.075 43.602 137.168 42.986 137.355 42.482C137.551 41.9687 137.84 41.5767 138.223 41.306C138.606 41.0353 139.091 40.9 139.679 40.9H139.735C140.323 40.9 140.808 41.0353 141.191 41.306C141.583 41.5767 141.872 41.9687 142.059 42.482C142.246 42.986 142.339 43.602 142.339 44.33H141.947C141.947 43.602 142.045 42.986 142.241 42.482C142.437 41.9687 142.726 41.5767 143.109 41.306C143.501 41.0353 143.991 40.9 144.579 40.9H144.635C145.223 40.9 145.713 41.0353 146.105 41.306C146.497 41.5767 146.786 41.9687 146.973 42.482C147.169 42.986 147.267 43.602 147.267 44.33V48.6H145.923V44.036C145.923 43.4293 145.774 42.9627 145.475 42.636C145.176 42.3 144.761 42.132 144.229 42.132C143.678 42.132 143.235 42.3093 142.899 42.664C142.563 43.0093 142.395 43.4947 142.395 44.12V48.6H141.051V44.036C141.051 43.4293 140.902 42.9627 140.603 42.636C140.304 42.3 139.889 42.132 139.357 42.132C138.806 42.132 138.363 42.3093 138.027 42.664C137.691 43.0093 137.523 43.4947 137.523 44.12V48.6H136.179ZM149.169 51.512V50.308H150.247C150.565 50.308 150.831 50.266 151.045 50.182C151.269 50.1073 151.451 49.9767 151.591 49.79C151.741 49.6033 151.862 49.356 151.955 49.048L154.307 41.124H155.623L153.131 49.398C152.982 49.8927 152.772 50.294 152.501 50.602C152.231 50.9193 151.899 51.148 151.507 51.288C151.125 51.4373 150.677 51.512 150.163 51.512H149.169ZM151.451 48.432V47.312H153.075V48.432H151.451ZM151.311 48.432L148.637 41.124H150.009L152.571 48.432H151.311ZM158.618 45.044V43.84H160.9C161.385 43.84 161.786 43.7467 162.104 43.56C162.421 43.364 162.659 43.1027 162.818 42.776C162.986 42.4493 163.07 42.0853 163.07 41.684C163.07 41.2733 162.986 40.9047 162.818 40.578C162.659 40.2513 162.421 39.9947 162.104 39.808C161.786 39.6213 161.385 39.528 160.9 39.528H158.618V38.324H160.648C161.488 38.324 162.188 38.4593 162.748 38.73C163.317 38.9913 163.746 39.3647 164.036 39.85C164.325 40.3353 164.47 40.9093 164.47 41.572V41.796C164.47 42.4493 164.325 43.0233 164.036 43.518C163.746 44.0033 163.317 44.3813 162.748 44.652C162.188 44.9133 161.488 45.044 160.648 45.044H158.618ZM157.526 48.6V38.324H158.898V48.6H157.526ZM166.369 48.6V38.38H167.713V48.6H166.369ZM165.333 39.444V38.38H167.713V39.444H165.333ZM174.812 48.6V46.36H174.588V43.77C174.588 43.2567 174.453 42.8693 174.182 42.608C173.921 42.3467 173.534 42.216 173.02 42.216C172.731 42.216 172.432 42.2207 172.124 42.23C171.816 42.2393 171.522 42.2487 171.242 42.258C170.962 42.2673 170.72 42.2813 170.514 42.3V41.124C170.72 41.1053 170.934 41.0913 171.158 41.082C171.392 41.0633 171.63 41.054 171.872 41.054C172.115 41.0447 172.348 41.04 172.572 41.04C173.338 41.04 173.963 41.1333 174.448 41.32C174.934 41.4973 175.293 41.7913 175.526 42.202C175.76 42.6127 175.876 43.168 175.876 43.868V48.6H174.812ZM172.362 48.796C171.802 48.796 171.317 48.7027 170.906 48.516C170.505 48.32 170.192 48.04 169.968 47.676C169.754 47.312 169.646 46.8733 169.646 46.36C169.646 45.828 169.763 45.3847 169.996 45.03C170.239 44.6753 170.589 44.4093 171.046 44.232C171.504 44.0453 172.054 43.952 172.698 43.952H174.728V44.96H172.642C172.101 44.96 171.686 45.0907 171.396 45.352C171.107 45.6133 170.962 45.9493 170.962 46.36C170.962 46.7707 171.107 47.102 171.396 47.354C171.686 47.606 172.101 47.732 172.642 47.732C172.96 47.732 173.263 47.676 173.552 47.564C173.842 47.4427 174.08 47.2467 174.266 46.976C174.462 46.696 174.57 46.3133 174.588 45.828L174.952 46.36C174.906 46.892 174.775 47.34 174.56 47.704C174.355 48.0587 174.066 48.3293 173.692 48.516C173.328 48.7027 172.885 48.796 172.362 48.796ZM177.812 51.512V50.308H178.89C179.207 50.308 179.473 50.266 179.688 50.182C179.912 50.1073 180.094 49.9767 180.234 49.79C180.383 49.6033 180.504 49.356 180.598 49.048L182.95 41.124H184.266L181.774 49.398C181.624 49.8927 181.414 50.294 181.144 50.602C180.873 50.9193 180.542 51.148 180.15 51.288C179.767 51.4373 179.319 51.512 178.806 51.512H177.812ZM180.094 48.432V47.312H181.718V48.432H180.094ZM179.954 48.432L177.28 41.124H178.652L181.214 48.432H179.954ZM186.056 48.6V38.38H187.4V48.6H186.056ZM185.02 39.444V38.38H187.4V39.444H185.02ZM190.342 48.6V41.124H191.686V48.6H190.342ZM189.194 42.188V41.124H191.686V42.188H189.194ZM190.72 39.92C190.421 39.92 190.197 39.8407 190.048 39.682C189.908 39.5233 189.838 39.3227 189.838 39.08C189.838 38.8373 189.908 38.6367 190.048 38.478C190.197 38.3193 190.421 38.24 190.72 38.24C191.019 38.24 191.238 38.3193 191.378 38.478C191.527 38.6367 191.602 38.8373 191.602 39.08C191.602 39.3227 191.527 39.5233 191.378 39.682C191.238 39.8407 191.019 39.92 190.72 39.92ZM196.735 48.824C195.755 48.824 194.994 48.614 194.453 48.194C193.921 47.774 193.645 47.2 193.627 46.472H194.887C194.905 46.7613 195.05 47.0367 195.321 47.298C195.601 47.55 196.072 47.676 196.735 47.676C197.332 47.676 197.789 47.5593 198.107 47.326C198.424 47.0833 198.583 46.7893 198.583 46.444C198.583 46.136 198.466 45.898 198.233 45.73C197.999 45.5527 197.621 45.436 197.099 45.38L196.287 45.296C195.577 45.2213 194.999 45.0113 194.551 44.666C194.103 44.3113 193.879 43.8167 193.879 43.182C193.879 42.706 194 42.3 194.243 41.964C194.485 41.6187 194.821 41.3573 195.251 41.18C195.68 40.9933 196.175 40.9 196.735 40.9C197.575 40.9 198.256 41.0867 198.779 41.46C199.301 41.8333 199.572 42.3887 199.591 43.126H198.331C198.321 42.8273 198.181 42.5753 197.911 42.37C197.649 42.1553 197.257 42.048 196.735 42.048C196.212 42.048 195.815 42.1553 195.545 42.37C195.274 42.5847 195.139 42.8553 195.139 43.182C195.139 43.462 195.232 43.686 195.419 43.854C195.615 44.022 195.932 44.1293 196.371 44.176L197.183 44.26C197.985 44.344 198.629 44.568 199.115 44.932C199.6 45.2867 199.843 45.7907 199.843 46.444C199.843 46.9107 199.707 47.326 199.437 47.69C199.175 48.0447 198.811 48.3247 198.345 48.53C197.878 48.726 197.341 48.824 196.735 48.824ZM204.702 48.684C204.142 48.684 203.657 48.6047 203.246 48.446C202.845 48.2873 202.532 48.0167 202.308 47.634C202.094 47.242 201.986 46.7147 201.986 46.052V38.856H203.274V46.22C203.274 46.6213 203.382 46.934 203.596 47.158C203.82 47.3727 204.133 47.48 204.534 47.48H205.85V48.684H204.702ZM200.698 42.132V41.124H205.85V42.132H200.698Z" fill="#9EA0A0"/>
<path d="M284 46.1667C291.824 46.1667 298.167 39.824 298.167 32C298.167 24.176 291.824 17.8333 284 17.8333C276.176 17.8333 269.833 24.176 269.833 32C269.833 39.824 276.176 46.1667 284 46.1667Z" stroke="#0B71F1" stroke-width="2" stroke-linecap="round" stroke-linejoin="round"/>
<path d="M284 26.3333V37.6667" stroke="#0B71F1" stroke-width="2" stroke-linecap="round" stroke-linejoin="round"/>
<path d="M278.333 32H289.667" stroke="#0B71F1" stroke-width="2" stroke-linecap="round" stroke-linejoin="round"/>
<g filter="url(#filter1_i_717_195)">
<rect y="80" width="320" height="66" rx="22" fill="white"/>
</g>
<rect x="17" y="93" width="40" height="40" rx="20" fill="#FC0D1B"/>
<path d="M19.8056 105.426C19.9663 102.953 21.9549 101.014 24.4306 100.892C28.0155 100.714 33.1393 100.5 37 100.5C40.8607 100.5 45.9845 100.714 49.5694 100.892C52.0451 101.014 54.0337 102.953 54.1944 105.426C54.3483 107.796 54.5 110.712 54.5 113C54.5 115.288 54.3483 118.204 54.1944 120.574C54.0337 123.047 52.0451 124.986 49.5694 125.108C45.9845 125.286 40.8607 125.5 37 125.5C33.1393 125.5 28.0155 125.286 24.4306 125.108C21.9549 124.986 19.9663 123.047 19.8056 120.574C19.6517 118.204 19.5 115.288 19.5 113C19.5 110.712 19.6517 107.796 19.8056 105.426Z" fill="#FC0D1B"/>
<path d="M33.25 108V118L43.25 113L33.25 108Z" fill="white"/>
<path d="M70.968 103.456L67.256 96.32H68.888L72.024 102.432L71.416 102.256H73.304L72.664 102.432L75.608 96.32H77.144L73.656 103.456H70.968ZM71.544 108V103.136H73.08V108H71.544ZM81.9549 108.288C81.2082 108.288 80.5522 108.16 79.9869 107.904C79.4215 107.648 78.9415 107.312 78.5469 106.896C78.1629 106.469 77.8695 105.995 77.6669 105.472C77.4749 104.949 77.3789 104.416 77.3789 103.872V103.584C77.3789 103.04 77.4802 102.507 77.6829 101.984C77.8855 101.451 78.1842 100.976 78.5789 100.56C78.9735 100.133 79.4535 99.7973 80.0189 99.552C80.5842 99.296 81.2295 99.168 81.9549 99.168C82.6802 99.168 83.3255 99.296 83.8909 99.552C84.4562 99.7973 84.9362 100.133 85.3309 100.56C85.7255 100.976 86.0242 101.451 86.2269 101.984C86.4295 102.507 86.5309 103.04 86.5309 103.584V103.872C86.5309 104.416 86.4295 104.949 86.2269 105.472C86.0349 105.995 85.7415 106.469 85.3469 106.896C84.9629 107.312 84.4882 107.648 83.9229 107.904C83.3575 108.16 82.7015 108.288 81.9549 108.288ZM81.9549 106.912C82.5949 106.912 83.1389 106.773 83.5869 106.496C84.0455 106.208 84.3922 105.824 84.6269 105.344C84.8722 104.864 84.9949 104.325 84.9949 103.728C84.9949 103.12 84.8722 102.576 84.6269 102.096C84.3815 101.616 84.0295 101.237 83.5709 100.96C83.1229 100.683 82.5842 100.544 81.9549 100.544C81.3362 100.544 80.7975 100.683 80.3389 100.96C79.8802 101.237 79.5282 101.616 79.2829 102.096C79.0375 102.576 78.9149 103.12 78.9149 103.728C78.9149 104.325 79.0322 104.864 79.2669 105.344C79.5122 105.824 79.8589 106.208 80.3069 106.496C80.7655 106.773 81.3149 106.912 81.9549 106.912ZM91.7914 108.256C90.778 108.256 89.9994 107.925 89.4554 107.264C88.9114 106.603 88.6394 105.648 88.6394 104.4V99.44H90.1754V104.704C90.1754 105.376 90.3567 105.904 90.7194 106.288C91.082 106.661 91.5727 106.848 92.1914 106.848C92.8314 106.848 93.354 106.645 93.7594 106.24C94.1647 105.824 94.3674 105.259 94.3674 104.544V99.44H95.9034V108H94.6874V104.336H94.8794C94.8794 105.179 94.7674 105.893 94.5434 106.48C94.3194 107.056 93.9834 107.499 93.5354 107.808C93.098 108.107 92.538 108.256 91.8554 108.256H91.7914ZM102.206 108.096C101.566 108.096 101.012 108.005 100.542 107.824C100.084 107.643 99.7263 107.333 99.4703 106.896C99.2249 106.448 99.1023 105.845 99.1023 105.088V96.864H100.574V105.28C100.574 105.739 100.697 106.096 100.942 106.352C101.198 106.597 101.556 106.72 102.014 106.72H103.518V108.096H102.206ZM97.6303 100.608V99.456H103.518V100.608H97.6303ZM108.651 108.256C107.637 108.256 106.859 107.925 106.315 107.264C105.771 106.603 105.499 105.648 105.499 104.4V99.44H107.035V104.704C107.035 105.376 107.216 105.904 107.579 106.288C107.941 106.661 108.432 106.848 109.051 106.848C109.691 106.848 110.213 106.645 110.619 106.24C111.024 105.824 111.227 105.259 111.227 104.544V99.44H112.763V108H111.547V104.336H111.739C111.739 105.179 111.627 105.893 111.403 106.48C111.179 107.056 110.843 107.499 110.395 107.808C109.957 108.107 109.397 108.256 108.715 108.256H108.651ZM120.25 108.288C119.546 108.288 118.916 108.133 118.362 107.824C117.818 107.515 117.386 107.067 117.066 106.48C116.746 105.883 116.57 105.168 116.538 104.336H116.954V108H115.738V96.32H117.274V102L116.73 103.168C116.772 102.24 116.959 101.483 117.29 100.896C117.62 100.309 118.052 99.8773 118.586 99.6C119.13 99.312 119.727 99.168 120.378 99.168C120.986 99.168 121.54 99.2853 122.042 99.52C122.543 99.744 122.975 100.059 123.338 100.464C123.7 100.859 123.978 101.323 124.17 101.856C124.362 102.379 124.458 102.944 124.458 103.552V103.84C124.458 104.448 124.356 105.019 124.154 105.552C123.962 106.085 123.679 106.56 123.306 106.976C122.932 107.381 122.484 107.701 121.962 107.936C121.45 108.171 120.879 108.288 120.25 108.288ZM120.074 106.944C120.65 106.944 121.151 106.805 121.578 106.528C122.004 106.251 122.335 105.872 122.57 105.392C122.804 104.901 122.922 104.336 122.922 103.696C122.922 103.056 122.799 102.496 122.554 102.016C122.319 101.536 121.988 101.168 121.562 100.912C121.135 100.645 120.639 100.512 120.074 100.512C119.562 100.512 119.087 100.629 118.65 100.864C118.212 101.088 117.86 101.419 117.594 101.856C117.338 102.283 117.21 102.8 117.21 103.408V104.144C117.21 104.731 117.343 105.232 117.61 105.648C117.876 106.064 118.228 106.384 118.666 106.608C119.103 106.832 119.572 106.944 120.074 106.944ZM130.401 108.288C129.654 108.288 129.009 108.16 128.465 107.904C127.921 107.648 127.478 107.312 127.137 106.896C126.796 106.469 126.54 105.995 126.369 105.472C126.209 104.949 126.129 104.416 126.129 103.872V103.584C126.129 103.029 126.209 102.491 126.369 101.968C126.54 101.445 126.796 100.976 127.137 100.56C127.478 100.133 127.91 99.7973 128.433 99.552C128.966 99.296 129.59 99.168 130.305 99.168C131.233 99.168 131.996 99.3707 132.593 99.776C133.201 100.171 133.649 100.683 133.937 101.312C134.236 101.941 134.385 102.613 134.385 103.328V104.016H126.801V102.864H133.265L132.913 103.488C132.913 102.88 132.817 102.357 132.625 101.92C132.433 101.472 132.145 101.125 131.761 100.88C131.377 100.635 130.892 100.512 130.305 100.512C129.697 100.512 129.19 100.651 128.785 100.928C128.39 101.205 128.092 101.584 127.889 102.064C127.697 102.544 127.601 103.099 127.601 103.728C127.601 104.336 127.697 104.885 127.889 105.376C128.092 105.856 128.401 106.24 128.817 106.528C129.233 106.805 129.761 106.944 130.401 106.944C131.073 106.944 131.617 106.795 132.033 106.496C132.46 106.197 132.716 105.851 132.801 105.456H134.241C134.124 106.043 133.889 106.549 133.537 106.976C133.185 107.403 132.742 107.728 132.209 107.952C131.676 108.176 131.073 108.288 130.401 108.288Z" fill="black"/>
<path d="M73.012 128.4V124.092L73.468 123.18C73.444 123.876 73.304 124.448 73.048 124.896C72.792 125.344 72.46 125.676 72.052 125.892C71.652 126.108 71.212 126.216 70.732 126.216C70.276 126.216 69.856 126.128 69.472 125.952C69.096 125.776 68.768 125.532 68.488 125.22C68.216 124.908 68.004 124.552 67.852 124.152C67.7 123.744 67.624 123.312 67.624 122.856V122.64C67.624 122.184 67.7 121.76 67.852 121.368C68.004 120.976 68.22 120.632 68.5 120.336C68.78 120.032 69.112 119.796 69.496 119.628C69.88 119.46 70.308 119.376 70.78 119.376C71.324 119.376 71.8 119.492 72.208 119.724C72.624 119.956 72.952 120.292 73.192 120.732C73.432 121.172 73.564 121.708 73.588 122.34H73.252V119.592H74.164V128.4H73.012ZM70.936 125.16C71.328 125.16 71.684 125.072 72.004 124.896C72.324 124.72 72.58 124.468 72.772 124.14C72.964 123.804 73.06 123.412 73.06 122.964V122.412C73.06 121.972 72.96 121.6 72.76 121.296C72.568 120.984 72.308 120.748 71.98 120.588C71.66 120.42 71.312 120.336 70.936 120.336C70.504 120.336 70.124 120.436 69.796 120.636C69.476 120.836 69.224 121.12 69.04 121.488C68.864 121.848 68.776 122.268 68.776 122.748C68.776 123.228 68.868 123.652 69.052 124.02C69.236 124.38 69.492 124.66 69.82 124.86C70.148 125.06 70.52 125.16 70.936 125.16ZM76.4494 126V117.24H77.6014V126H76.4494ZM75.5614 118.152V117.24H77.6014V118.152H75.5614ZM82.535 126.216C81.975 126.216 81.491 126.12 81.083 125.928C80.675 125.736 80.343 125.484 80.087 125.172C79.831 124.852 79.639 124.496 79.511 124.104C79.391 123.712 79.331 123.312 79.331 122.904V122.688C79.331 122.272 79.391 121.868 79.511 121.476C79.639 121.084 79.831 120.732 80.087 120.42C80.343 120.1 80.667 119.848 81.059 119.664C81.459 119.472 81.927 119.376 82.463 119.376C83.159 119.376 83.731 119.528 84.179 119.832C84.635 120.128 84.971 120.512 85.187 120.984C85.411 121.456 85.523 121.96 85.523 122.496V123.012H79.835V122.148H84.683L84.419 122.616C84.419 122.16 84.347 121.768 84.203 121.44C84.059 121.104 83.843 120.844 83.555 120.66C83.267 120.476 82.903 120.384 82.463 120.384C82.007 120.384 81.627 120.488 81.323 120.696C81.027 120.904 80.803 121.188 80.651 121.548C80.507 121.908 80.435 122.324 80.435 122.796C80.435 123.252 80.507 123.664 80.651 124.032C80.803 124.392 81.035 124.68 81.347 124.896C81.659 125.104 82.055 125.208 82.535 125.208C83.039 125.208 83.447 125.096 83.759 124.872C84.079 124.648 84.271 124.388 84.335 124.092H85.415C85.327 124.532 85.151 124.912 84.887 125.232C84.623 125.552 84.291 125.796 83.891 125.964C83.491 126.132 83.039 126.216 82.535 126.216ZM89.8827 126.216C89.3227 126.216 88.8387 126.12 88.4307 125.928C88.0227 125.736 87.6907 125.484 87.4347 125.172C87.1787 124.852 86.9867 124.496 86.8587 124.104C86.7387 123.712 86.6787 123.312 86.6787 122.904V122.688C86.6787 122.272 86.7387 121.868 86.8587 121.476C86.9867 121.084 87.1787 120.732 87.4347 120.42C87.6907 120.1 88.0147 119.848 88.4067 119.664C88.8067 119.472 89.2747 119.376 89.8107 119.376C90.5067 119.376 91.0787 119.528 91.5267 119.832C91.9827 120.128 92.3187 120.512 92.5347 120.984C92.7587 121.456 92.8707 121.96 92.8707 122.496V123.012H87.1827V122.148H92.0307L91.7667 122.616C91.7667 122.16 91.6947 121.768 91.5507 121.44C91.4067 121.104 91.1907 120.844 90.9027 120.66C90.6147 120.476 90.2507 120.384 89.8107 120.384C89.3547 120.384 88.9747 120.488 88.6707 120.696C88.3747 120.904 88.1507 121.188 87.9987 121.548C87.8547 121.908 87.7827 122.324 87.7827 122.796C87.7827 123.252 87.8547 123.664 87.9987 124.032C88.1507 124.392 88.3827 124.68 88.6947 124.896C89.0067 125.104 89.4027 125.208 89.8827 125.208C90.3867 125.208 90.7947 125.096 91.1067 124.872C91.4267 124.648 91.6187 124.388 91.6827 124.092H92.7627C92.6747 124.532 92.4987 124.912 92.2347 125.232C91.9707 125.552 91.6387 125.796 91.2387 125.964C90.8387 126.132 90.3867 126.216 89.8827 126.216ZM94.1846 126V124.536H95.5766V126H94.1846ZM97.5532 126V119.592H98.4652V122.34H98.3212C98.3212 121.716 98.4012 121.188 98.5612 120.756C98.7292 120.316 98.9772 119.98 99.3052 119.748C99.6332 119.516 100.049 119.4 100.553 119.4H100.601C101.105 119.4 101.521 119.516 101.849 119.748C102.185 119.98 102.433 120.316 102.593 120.756C102.753 121.188 102.833 121.716 102.833 122.34H102.497C102.497 121.716 102.581 121.188 102.749 120.756C102.917 120.316 103.165 119.98 103.493 119.748C103.829 119.516 104.249 119.4 104.753 119.4H104.801C105.305 119.4 105.725 119.516 106.061 119.748C106.397 119.98 106.645 120.316 106.805 120.756C106.973 121.188 107.057 121.716 107.057 122.34V126H105.905V122.088C105.905 121.568 105.777 121.168 105.521 120.888C105.265 120.6 104.909 120.456 104.453 120.456C103.981 120.456 103.601 120.608 103.313 120.912C103.025 121.208 102.881 121.624 102.881 122.16V126H101.729V122.088C101.729 121.568 101.601 121.168 101.345 120.888C101.089 120.6 100.733 120.456 100.277 120.456C99.8052 120.456 99.4252 120.608 99.1372 120.912C98.8492 121.208 98.7052 121.624 98.7052 122.16V126H97.5532ZM111.891 126.216C111.331 126.216 110.847 126.12 110.439 125.928C110.031 125.736 109.699 125.484 109.443 125.172C109.187 124.852 108.995 124.496 108.867 124.104C108.747 123.712 108.687 123.312 108.687 122.904V122.688C108.687 122.272 108.747 121.868 108.867 121.476C108.995 121.084 109.187 120.732 109.443 120.42C109.699 120.1 110.023 119.848 110.415 119.664C110.815 119.472 111.283 119.376 111.819 119.376C112.515 119.376 113.087 119.528 113.535 119.832C113.991 120.128 114.327 120.512 114.543 120.984C114.767 121.456 114.879 121.96 114.879 122.496V123.012H109.191V122.148H114.039L113.775 122.616C113.775 122.16 113.703 121.768 113.559 121.44C113.415 121.104 113.199 120.844 112.911 120.66C112.623 120.476 112.259 120.384 111.819 120.384C111.363 120.384 110.983 120.488 110.679 120.696C110.383 120.904 110.159 121.188 110.007 121.548C109.863 121.908 109.791 122.324 109.791 122.796C109.791 123.252 109.863 123.664 110.007 124.032C110.159 124.392 110.391 124.68 110.703 124.896C111.015 125.104 111.411 125.208 111.891 125.208C112.395 125.208 112.803 125.096 113.115 124.872C113.435 124.648 113.627 124.388 113.691 124.092H114.771C114.683 124.532 114.507 124.912 114.243 125.232C113.979 125.552 113.647 125.796 113.247 125.964C112.847 126.132 112.395 126.216 111.891 126.216ZM115.71 126.72L118.158 116.64H119.238L116.79 126.72H115.71ZM120.639 126V117.24H121.791V122.472H121.503C121.503 121.84 121.583 121.296 121.743 120.84C121.911 120.376 122.167 120.02 122.511 119.772C122.855 119.524 123.295 119.4 123.831 119.4H123.879C124.647 119.4 125.227 119.656 125.619 120.168C126.011 120.672 126.207 121.396 126.207 122.34V126H125.055V122.1C125.055 121.58 124.907 121.176 124.611 120.888C124.323 120.6 123.947 120.456 123.483 120.456C122.971 120.456 122.559 120.628 122.247 120.972C121.943 121.308 121.791 121.752 121.791 122.304V126H120.639ZM131.699 126.216C131.171 126.216 130.699 126.1 130.283 125.868C129.875 125.636 129.551 125.3 129.311 124.86C129.071 124.412 128.939 123.876 128.915 123.252H129.227V126H128.315V117.24H129.467V121.5L129.059 122.376C129.091 121.68 129.231 121.112 129.479 120.672C129.727 120.232 130.051 119.908 130.451 119.7C130.859 119.484 131.307 119.376 131.795 119.376C132.251 119.376 132.667 119.464 133.043 119.64C133.419 119.808 133.743 120.044 134.015 120.348C134.287 120.644 134.495 120.992 134.639 121.392C134.783 121.784 134.855 122.208 134.855 122.664V122.88C134.855 123.336 134.779 123.764 134.627 124.164C134.483 124.564 134.271 124.92 133.991 125.232C133.711 125.536 133.375 125.776 132.983 125.952C132.599 126.128 132.171 126.216 131.699 126.216ZM131.567 125.208C131.999 125.208 132.375 125.104 132.695 124.896C133.015 124.688 133.263 124.404 133.439 124.044C133.615 123.676 133.703 123.252 133.703 122.772C133.703 122.292 133.611 121.872 133.427 121.512C133.251 121.152 133.003 120.876 132.683 120.684C132.363 120.484 131.991 120.384 131.567 120.384C131.183 120.384 130.827 120.472 130.499 120.648C130.171 120.816 129.907 121.064 129.707 121.392C129.515 121.712 129.419 122.1 129.419 122.556V123.108C129.419 123.548 129.519 123.924 129.719 124.236C129.919 124.548 130.183 124.788 130.511 124.956C130.839 125.124 131.191 125.208 131.567 125.208ZM136.756 126V117.24H137.932V126H136.756ZM137.692 126V124.944H141.7V126H137.692ZM142.924 126V124.56C142.924 124.208 142.972 123.908 143.068 123.66C143.172 123.412 143.348 123.188 143.596 122.988C143.844 122.78 144.18 122.58 144.604 122.388L146.248 121.632C146.648 121.448 146.964 121.212 147.196 120.924C147.428 120.628 147.544 120.248 147.544 119.784C147.544 119.224 147.388 118.788 147.076 118.476C146.764 118.164 146.324 118.008 145.756 118.008C145.196 118.008 144.756 118.164 144.436 118.476C144.116 118.788 143.956 119.224 143.956 119.784H142.828C142.828 119.28 142.932 118.816 143.14 118.392C143.356 117.968 143.68 117.632 144.112 117.384C144.544 117.128 145.092 117 145.756 117C146.42 117 146.964 117.128 147.388 117.384C147.82 117.632 148.14 117.96 148.348 118.368C148.564 118.776 148.672 119.22 148.672 119.7V119.868C148.672 120.5 148.488 121.032 148.12 121.464C147.76 121.896 147.272 122.252 146.656 122.532L145.012 123.288C144.644 123.456 144.396 123.624 144.268 123.792C144.14 123.96 144.076 124.184 144.076 124.464V125.568L143.764 125.016H148.78V126H142.924Z" fill="#9EA0A0"/>
<g filter="url(#filter2_i_717_195)">
<rect y="160" width="320" height="66" rx="22" fill="white"/>
</g>
<path d="M57 193C57 204.046 48.0457 213 37 213C25.9543 213 17 204.046 17 193C17 181.954 25.9543 173 37 173C48.0457 173 57 181.954 57 193Z" fill="black"/>
<path d="M46.0919 201.033C45.7502 201.575 45.0213 201.727 44.4518 201.401C39.9642 198.799 34.3377 198.213 27.686 199.645C27.0482 199.775 26.4104 199.406 26.2737 198.799C26.137 198.192 26.5243 197.585 27.1621 197.454C34.4288 195.871 40.6704 196.544 45.6819 199.471C46.2514 199.797 46.4336 200.491 46.0919 201.033ZM48.4154 196.088C47.9826 196.76 47.0714 196.956 46.3653 196.565C41.2399 193.551 33.4265 192.683 27.3671 194.44C26.5699 194.657 25.7498 194.245 25.522 193.507C25.2942 192.748 25.727 191.968 26.5243 191.751C33.4493 189.756 42.0599 190.71 47.9598 194.158C48.6204 194.548 48.8482 195.416 48.4154 196.088ZM48.6204 190.927C42.47 187.457 32.3331 187.131 26.456 188.823C25.522 189.105 24.5197 188.606 24.2236 187.695C23.9274 186.806 24.4741 185.852 25.4081 185.57C32.1508 183.618 43.3584 184.009 50.42 187.999C51.2629 188.476 51.5362 189.517 51.0351 190.319C50.5567 191.144 49.4633 191.425 48.6204 190.927Z" fill="black"/>
<path d="M29.451 196.793C29.6072 195.499 30.1379 194.774 31.1379 194.032C32.5688 193.026 34.3561 193.595 34.3561 193.595V190.22C34.7907 190.208 35.2254 190.234 35.6551 190.297V194.64C35.6551 194.64 33.8683 194.071 32.4375 195.077C31.438 195.82 30.9062 196.545 30.7505 197.838C30.7456 198.541 30.8775 199.459 31.4847 200.254C31.3345 200.177 31.1815 200.089 31.0256 199.99C29.6881 199.092 29.4444 197.745 29.451 196.793ZM43.0352 183.979C42.0509 182.9 41.6786 181.811 41.5441 181.046H42.7823C42.7823 181.046 42.5354 183.052 44.3347 185.025L44.3597 185.051C43.8747 184.746 43.43 184.386 43.0352 183.979ZM49 187.037V191.293C49 191.293 47.42 191.231 46.2507 190.934C44.6179 190.518 43.5685 189.879 43.5685 189.879C43.5685 189.879 42.8436 189.424 42.785 189.393V198.182C42.785 198.671 42.651 199.893 42.2424 200.912C41.709 202.246 40.8859 203.121 40.7345 203.3C40.7345 203.3 39.7334 204.483 37.9672 205.28C36.3752 205.999 34.9774 205.98 34.5596 205.999C34.5596 205.999 32.1434 206.094 29.9691 204.681C29.499 204.37 29.0601 204.017 28.6582 203.628L28.6691 203.635C30.8438 205.048 33.2595 204.953 33.2595 204.953C33.6779 204.935 35.0756 204.953 36.6671 204.234C38.4317 203.437 39.4344 202.254 39.4344 202.254C39.5842 202.075 40.4111 201.2 40.9423 199.866C41.3498 198.847 41.4849 197.625 41.4849 197.135V188.347C41.5435 188.38 42.2679 188.835 42.2679 188.835C42.2679 188.835 43.3179 189.473 44.9506 189.889C46.1204 190.186 47.7 190.248 47.7 190.248V186.913C48.2404 187.034 48.7011 187.067 49 187.037Z" fill="#EE1D52"/>
<path d="M47.7004 186.913V190.247C47.7004 190.247 46.1208 190.185 44.951 189.888C43.3183 189.472 42.2683 188.834 42.2683 188.834C42.2683 188.834 41.5439 188.379 41.4853 188.346V197.136C41.4853 197.626 41.3513 198.848 40.9427 199.867C40.4093 201.201 39.5862 202.076 39.4348 202.255C39.4348 202.255 38.4332 203.438 36.6675 204.235C35.076 204.954 33.6783 204.936 33.2599 204.954C33.2599 204.954 30.8442 205.05 28.6695 203.637L28.6586 203.629C28.429 203.406 28.2129 203.172 28.0113 202.926C27.3173 202.079 26.8919 201.079 26.785 200.793V200.79C26.613 200.294 26.2516 199.102 26.301 197.948C26.3883 195.912 27.1046 194.662 27.294 194.349C27.7955 193.496 28.4478 192.732 29.2218 192.092C29.9049 191.54 30.6791 191.1 31.5127 190.792C32.4139 190.429 33.3789 190.235 34.356 190.22V193.595C34.356 193.595 32.5686 193.028 31.1383 194.032C30.1383 194.774 29.6076 195.499 29.4514 196.793C29.4449 197.745 29.6885 199.092 31.0249 199.991C31.1808 200.09 31.3339 200.177 31.484 200.254C31.7175 200.558 32.0016 200.822 32.325 201.037C33.6305 201.863 34.7244 201.921 36.1233 201.384C37.056 201.025 37.7582 200.217 38.0837 199.321C38.2883 198.761 38.2856 198.198 38.2856 197.615V181.046H41.5412C41.6758 181.811 42.048 182.9 43.0323 183.979C43.4272 184.386 43.8719 184.746 44.3568 185.051C44.5001 185.199 45.2326 185.932 46.1729 186.382C46.6592 186.615 47.1717 186.793 47.7004 186.913Z" fill="white"/>
<path d="M25.4893 199.757V199.76L25.57 199.979C25.5608 199.953 25.5307 199.876 25.4893 199.757Z" fill="#69C9D0"/>
<path d="M31.5128 190.792C30.6792 191.1 29.905 191.54 29.2219 192.092C28.4476 192.733 27.7955 193.499 27.2946 194.354C27.1052 194.666 26.389 195.917 26.3016 197.953C26.2522 199.107 26.6136 200.298 26.7856 200.794C26.7854 200.796 26.7854 200.797 26.7856 200.798C26.8941 201.081 27.3179 202.082 28.0119 202.93C28.2135 203.176 28.4296 203.411 28.6592 203.633C27.9236 203.146 27.2675 202.556 26.7124 201.884C26.0243 201.045 25.6 200.055 25.4893 199.763C25.4892 199.761 25.4892 199.759 25.4893 199.756V199.753C25.3168 199.257 24.9543 198.065 25.0048 196.91C25.0921 194.874 25.8084 193.624 25.9977 193.311C26.4985 192.455 27.1507 191.69 27.9251 191.049C28.608 190.496 29.3823 190.057 30.216 189.748C30.736 189.542 31.2778 189.389 31.8319 189.293C32.6669 189.154 33.5198 189.142 34.3588 189.258V190.22C33.3808 190.235 32.4148 190.429 31.5128 190.792Z" fill="#69C9D0"/>
<path d="M41.5438 181.046H38.2881V197.616C38.2881 198.198 38.2881 198.76 38.0863 199.321C37.7575 200.217 37.058 201.025 36.1258 201.384C34.7265 201.923 33.6326 201.863 32.3276 201.037C32.0036 200.823 31.7187 200.559 31.4844 200.257C32.5962 200.825 33.5913 200.815 34.8241 200.341C35.7558 199.982 36.4563 199.173 36.784 198.277C36.9891 197.718 36.9864 197.155 36.9864 196.573V180H41.4819C41.4819 180 41.4315 180.412 41.5438 181.046ZM47.7002 185.991V186.913C47.1725 186.793 46.6609 186.614 46.1755 186.382C45.2352 185.932 44.5026 185.2 44.3594 185.051C44.5256 185.156 44.6981 185.251 44.8759 185.336C46.0192 185.883 47.1451 186.047 47.7002 185.991Z" fill="#69C9D0"/>
<path d="M75.096 177.848V179.032H72.056V189H70.6V179.032H67.544V177.848H75.096ZM77.6403 178.808C77.3629 178.808 77.1283 178.712 76.9363 178.52C76.7443 178.328 76.6483 178.093 76.6483 177.816C76.6483 177.539 76.7443 177.304 76.9363 177.112C77.1283 176.92 77.3629 176.824 77.6403 176.824C77.9069 176.824 78.1309 176.92 78.3123 177.112C78.5043 177.304 78.6003 177.539 78.6003 177.816C78.6003 178.093 78.5043 178.328 78.3123 178.52C78.1309 178.712 77.9069 178.808 77.6403 178.808ZM78.3443 180.232V189H76.8883V180.232H78.3443ZM85.7218 189L82.2818 185.128V189H80.8258V177.16H82.2818V184.12L85.6578 180.232H87.6898L83.5618 184.6L87.7058 189H85.7218ZM95.9241 177.848V179.032H92.8841V189H91.4281V179.032H88.3721V177.848H95.9241ZM101.54 189.144C100.719 189.144 99.9724 188.957 99.3004 188.584C98.639 188.211 98.1164 187.683 97.7324 187C97.359 186.307 97.1724 185.507 97.1724 184.6C97.1724 183.704 97.3644 182.915 97.7484 182.232C98.143 181.539 98.6764 181.011 99.3484 180.648C100.02 180.275 100.772 180.088 101.604 180.088C102.436 180.088 103.188 180.275 103.86 180.648C104.532 181.011 105.06 181.533 105.444 182.216C105.839 182.899 106.036 183.693 106.036 184.6C106.036 185.507 105.834 186.307 105.428 187C105.034 187.683 104.495 188.211 103.812 188.584C103.13 188.957 102.372 189.144 101.54 189.144ZM101.54 187.864C102.063 187.864 102.554 187.741 103.012 187.496C103.471 187.251 103.839 186.883 104.116 186.392C104.404 185.901 104.548 185.304 104.548 184.6C104.548 183.896 104.41 183.299 104.132 182.808C103.855 182.317 103.492 181.955 103.044 181.72C102.596 181.475 102.111 181.352 101.588 181.352C101.055 181.352 100.564 181.475 100.116 181.72C99.679 181.955 99.327 182.317 99.0604 182.808C98.7937 183.299 98.6604 183.896 98.6604 184.6C98.6604 185.315 98.7884 185.917 99.0444 186.408C99.311 186.899 99.663 187.267 100.1 187.512C100.538 187.747 101.018 187.864 101.54 187.864ZM112.847 189L109.407 185.128V189H107.951V177.16H109.407V184.12L112.783 180.232H114.815L110.687 184.6L114.831 189H112.847Z" fill="black"/>
<path d="M67.516 202.688C67.516 202.016 67.652 201.428 67.924 200.924C68.196 200.412 68.568 200.016 69.04 199.736C69.52 199.456 70.056 199.316 70.648 199.316C71.216 199.316 71.712 199.444 72.136 199.7C72.568 199.948 72.884 200.256 73.084 200.624V199.424H74.188V209.12H73.084V204.788C72.876 205.156 72.556 205.468 72.124 205.724C71.692 205.98 71.188 206.108 70.612 206.108C70.036 206.108 69.512 205.964 69.04 205.676C68.568 205.388 68.196 204.984 67.924 204.464C67.652 203.944 67.516 203.352 67.516 202.688ZM73.084 202.7C73.084 202.204 72.984 201.772 72.784 201.404C72.584 201.036 72.312 200.756 71.968 200.564C71.632 200.364 71.26 200.264 70.852 200.264C70.444 200.264 70.072 200.36 69.736 200.552C69.4 200.744 69.132 201.024 68.932 201.392C68.732 201.76 68.632 202.192 68.632 202.688C68.632 203.192 68.732 203.632 68.932 204.008C69.132 204.376 69.4 204.66 69.736 204.86C70.072 205.052 70.444 205.148 70.852 205.148C71.26 205.148 71.632 205.052 71.968 204.86C72.312 204.66 72.584 204.376 72.784 204.008C72.984 203.632 73.084 203.196 73.084 202.7ZM77.1254 197.12V206H76.0334V197.12H77.1254ZM84.9865 202.46C84.9865 202.668 84.9745 202.888 84.9505 203.12H79.6945C79.7345 203.768 79.9545 204.276 80.3545 204.644C80.7625 205.004 81.2545 205.184 81.8305 205.184C82.3025 205.184 82.6945 205.076 83.0065 204.86C83.3265 204.636 83.5505 204.34 83.6785 203.972H84.8545C84.6785 204.604 84.3265 205.12 83.7985 205.52C83.2705 205.912 82.6145 206.108 81.8305 206.108C81.2065 206.108 80.6465 205.968 80.1505 205.688C79.6625 205.408 79.2785 205.012 78.9985 204.5C78.7185 203.98 78.5785 203.38 78.5785 202.7C78.5785 202.02 78.7145 201.424 78.9865 200.912C79.2585 200.4 79.6385 200.008 80.1265 199.736C80.6225 199.456 81.1905 199.316 81.8305 199.316C82.4545 199.316 83.0065 199.452 83.4865 199.724C83.9665 199.996 84.3345 200.372 84.5905 200.852C84.8545 201.324 84.9865 201.86 84.9865 202.46ZM83.8585 202.232C83.8585 201.816 83.7665 201.46 83.5825 201.164C83.3985 200.86 83.1465 200.632 82.8265 200.48C82.5145 200.32 82.1665 200.24 81.7825 200.24C81.2305 200.24 80.7585 200.416 80.3665 200.768C79.9825 201.12 79.7625 201.608 79.7065 202.232H83.8585ZM92.4279 202.46C92.4279 202.668 92.4159 202.888 92.3919 203.12H87.1359C87.1759 203.768 87.3959 204.276 87.7959 204.644C88.2039 205.004 88.6959 205.184 89.2719 205.184C89.7439 205.184 90.1359 205.076 90.4479 204.86C90.7679 204.636 90.9919 204.34 91.1199 203.972H92.2959C92.1199 204.604 91.7679 205.12 91.2399 205.52C90.7119 205.912 90.0559 206.108 89.2719 206.108C88.6479 206.108 88.0879 205.968 87.5919 205.688C87.1039 205.408 86.7199 205.012 86.4399 204.5C86.1599 203.98 86.0199 203.38 86.0199 202.7C86.0199 202.02 86.1559 201.424 86.4279 200.912C86.6999 200.4 87.0799 200.008 87.5679 199.736C88.0639 199.456 88.6319 199.316 89.2719 199.316C89.8959 199.316 90.4479 199.452 90.9279 199.724C91.4079 199.996 91.7759 200.372 92.0319 200.852C92.2959 201.324 92.4279 201.86 92.4279 202.46ZM91.2999 202.232C91.2999 201.816 91.2079 201.46 91.0239 201.164C90.8399 200.86 90.5879 200.632 90.2679 200.48C89.9559 200.32 89.6079 200.24 89.2239 200.24C88.6719 200.24 88.1999 200.416 87.8079 200.768C87.4239 201.12 87.2039 201.608 87.1479 202.232H91.2999ZM94.2173 206.072C94.0093 206.072 93.8333 206 93.6893 205.856C93.5453 205.712 93.4733 205.536 93.4733 205.328C93.4733 205.12 93.5453 204.944 93.6893 204.8C93.8333 204.656 94.0093 204.584 94.2173 204.584C94.4173 204.584 94.5853 204.656 94.7213 204.8C94.8653 204.944 94.9373 205.12 94.9373 205.328C94.9373 205.536 94.8653 205.712 94.7213 205.856C94.5853 206 94.4173 206.072 94.2173 206.072ZM104.297 199.304C104.809 199.304 105.265 199.412 105.665 199.628C106.065 199.836 106.381 200.152 106.613 200.576C106.845 201 106.961 201.516 106.961 202.124V206H105.881V202.28C105.881 201.624 105.717 201.124 105.389 200.78C105.069 200.428 104.633 200.252 104.081 200.252C103.513 200.252 103.061 200.436 102.725 200.804C102.389 201.164 102.221 201.688 102.221 202.376V206H101.141V202.28C101.141 201.624 100.977 201.124 100.649 200.78C100.329 200.428 99.8928 200.252 99.3408 200.252C98.7728 200.252 98.3208 200.436 97.9848 200.804C97.6488 201.164 97.4808 201.688 97.4808 202.376V206H96.3888V199.424H97.4808V200.372C97.6968 200.028 97.9848 199.764 98.3448 199.58C98.7128 199.396 99.1168 199.304 99.5568 199.304C100.109 199.304 100.597 199.428 101.021 199.676C101.445 199.924 101.761 200.288 101.969 200.768C102.153 200.304 102.457 199.944 102.881 199.688C103.305 199.432 103.777 199.304 104.297 199.304ZM114.752 202.46C114.752 202.668 114.74 202.888 114.716 203.12H109.46C109.5 203.768 109.72 204.276 110.12 204.644C110.528 205.004 111.02 205.184 111.596 205.184C112.068 205.184 112.46 205.076 112.772 204.86C113.092 204.636 113.316 204.34 113.444 203.972H114.62C114.444 204.604 114.092 205.12 113.564 205.52C113.036 205.912 112.38 206.108 111.596 206.108C110.972 206.108 110.412 205.968 109.916 205.688C109.428 205.408 109.044 205.012 108.764 204.5C108.484 203.98 108.344 203.38 108.344 202.7C108.344 202.02 108.48 201.424 108.752 200.912C109.024 200.4 109.404 200.008 109.892 199.736C110.388 199.456 110.956 199.316 111.596 199.316C112.22 199.316 112.772 199.452 113.252 199.724C113.732 199.996 114.1 200.372 114.356 200.852C114.62 201.324 114.752 201.86 114.752 202.46ZM113.624 202.232C113.624 201.816 113.532 201.46 113.348 201.164C113.164 200.86 112.912 200.632 112.592 200.48C112.28 200.32 111.932 200.24 111.548 200.24C110.996 200.24 110.524 200.416 110.132 200.768C109.748 201.12 109.528 201.608 109.472 202.232H113.624ZM120.274 194.696L116.986 208.04H115.906L119.182 194.696H120.274ZM129.809 199.304C130.321 199.304 130.777 199.412 131.177 199.628C131.577 199.836 131.893 200.152 132.125 200.576C132.357 201 132.473 201.516 132.473 202.124V206H131.393V202.28C131.393 201.624 131.229 201.124 130.901 200.78C130.581 200.428 130.145 200.252 129.593 200.252C129.025 200.252 128.573 200.436 128.237 200.804C127.901 201.164 127.733 201.688 127.733 202.376V206H126.653V202.28C126.653 201.624 126.489 201.124 126.161 200.78C125.841 200.428 125.405 200.252 124.853 200.252C124.285 200.252 123.833 200.436 123.497 200.804C123.161 201.164 122.993 201.688 122.993 202.376V206H121.901V199.424H122.993V200.372C123.209 200.028 123.497 199.764 123.857 199.58C124.225 199.396 124.629 199.304 125.069 199.304C125.621 199.304 126.109 199.428 126.533 199.676C126.957 199.924 127.273 200.288 127.481 200.768C127.665 200.304 127.969 199.944 128.393 199.688C128.817 199.432 129.289 199.304 129.809 199.304ZM139.928 199.424L135.968 209.096H134.84L136.136 205.928L133.484 199.424H134.696L136.76 204.752L138.8 199.424H139.928ZM146.174 197.636V198.524H143.894V206H142.802V198.524H140.51V197.636H146.174ZM148.082 198.356C147.874 198.356 147.698 198.284 147.554 198.14C147.41 197.996 147.338 197.82 147.338 197.612C147.338 197.404 147.41 197.228 147.554 197.084C147.698 196.94 147.874 196.868 148.082 196.868C148.282 196.868 148.45 196.94 148.586 197.084C148.73 197.228 148.802 197.404 148.802 197.612C148.802 197.82 148.73 197.996 148.586 198.14C148.45 198.284 148.282 198.356 148.082 198.356ZM148.61 199.424V206H147.518V199.424H148.61ZM154.143 206L151.563 203.096V206H150.471V197.12H151.563V202.34L154.095 199.424H155.619L152.523 202.7L155.631 206H154.143ZM157.979 200.324V204.2C157.979 204.52 158.047 204.748 158.183 204.884C158.319 205.012 158.555 205.076 158.891 205.076H159.695V206H158.711C158.103 206 157.647 205.86 157.343 205.58C157.039 205.3 156.887 204.84 156.887 204.2V200.324H156.035V199.424H156.887V197.768H157.979V199.424H159.695V200.324H157.979ZM163.886 206.108C163.27 206.108 162.71 205.968 162.206 205.688C161.71 205.408 161.318 205.012 161.03 204.5C160.75 203.98 160.61 203.38 160.61 202.7C160.61 202.028 160.754 201.436 161.042 200.924C161.338 200.404 161.738 200.008 162.242 199.736C162.746 199.456 163.31 199.316 163.934 199.316C164.558 199.316 165.122 199.456 165.626 199.736C166.13 200.008 166.526 200.4 166.814 200.912C167.11 201.424 167.258 202.02 167.258 202.7C167.258 203.38 167.106 203.98 166.802 204.5C166.506 205.012 166.102 205.408 165.59 205.688C165.078 205.968 164.51 206.108 163.886 206.108ZM163.886 205.148C164.278 205.148 164.646 205.056 164.99 204.872C165.334 204.688 165.61 204.412 165.818 204.044C166.034 203.676 166.142 203.228 166.142 202.7C166.142 202.172 166.038 201.724 165.83 201.356C165.622 200.988 165.35 200.716 165.014 200.54C164.678 200.356 164.314 200.264 163.922 200.264C163.522 200.264 163.154 200.356 162.818 200.54C162.49 200.716 162.226 200.988 162.026 201.356C161.826 201.724 161.726 202.172 161.726 202.7C161.726 203.236 161.822 203.688 162.014 204.056C162.214 204.424 162.478 204.7 162.806 204.884C163.134 205.06 163.494 205.148 163.886 205.148ZM172.366 206L169.786 203.096V206H168.694V197.12H169.786V202.34L172.318 199.424H173.842L170.746 202.7L173.854 206H172.366Z" fill="#9EA0A0"/>
<g filter="url(#filter3_i_717_195)">
<rect y="240" width="320" height="66" rx="22" fill="white"/>
</g>
<path d="M57 273C57 284.046 48.0457 293 37 293C25.9543 293 17 284.046 17 273C17 261.954 25.9543 253 37 253C48.0457 253 57 261.954 57 273Z" fill="url(#paint0_linear_717_195)"/>
<path d="M44.4482 279.117L45.3366 273.472H39.7789V269.81C39.7789 268.265 40.5538 266.759 43.0431 266.759H45.5714V261.953C45.5714 261.953 43.2779 261.571 41.0861 261.571C36.5069 261.571 33.5167 264.276 33.5167 269.169V273.472H28.4286V279.117H33.5167V292.764C34.5382 292.92 35.5832 293 36.6478 293C37.7123 293 38.7574 292.92 39.7789 292.764V279.117H44.4482Z" fill="white"/>
<path d="M68.696 268V256.32H70.264V268H68.696ZM69.944 262.8V261.392L74.952 261.376V262.784L69.944 262.8ZM69.944 257.728V256.32H75.224V257.728H69.944ZM82.3119 268V265.44H82.0559V262.48C82.0559 261.893 81.9012 261.451 81.5919 261.152C81.2932 260.853 80.8505 260.704 80.2639 260.704C79.9332 260.704 79.5919 260.709 79.2399 260.72C78.8879 260.731 78.5519 260.741 78.2319 260.752C77.9119 260.763 77.6345 260.779 77.3999 260.8V259.456C77.6345 259.435 77.8799 259.419 78.1359 259.408C78.4025 259.387 78.6745 259.376 78.9519 259.376C79.2292 259.365 79.4959 259.36 79.7519 259.36C80.6265 259.36 81.3412 259.467 81.8959 259.68C82.4505 259.883 82.8612 260.219 83.1279 260.688C83.3945 261.157 83.5279 261.792 83.5279 262.592V268H82.3119ZM79.5119 268.224C78.8719 268.224 78.3172 268.117 77.8479 267.904C77.3892 267.68 77.0319 267.36 76.7759 266.944C76.5305 266.528 76.4079 266.027 76.4079 265.44C76.4079 264.832 76.5412 264.325 76.8079 263.92C77.0852 263.515 77.4852 263.211 78.0079 263.008C78.5305 262.795 79.1599 262.688 79.8959 262.688H82.2159V263.84H79.8319C79.2132 263.84 78.7385 263.989 78.4079 264.288C78.0772 264.587 77.9119 264.971 77.9119 265.44C77.9119 265.909 78.0772 266.288 78.4079 266.576C78.7385 266.864 79.2132 267.008 79.8319 267.008C80.1945 267.008 80.5412 266.944 80.8719 266.816C81.2025 266.677 81.4745 266.453 81.6879 266.144C81.9119 265.824 82.0345 265.387 82.0559 264.832L82.4719 265.44C82.4185 266.048 82.2692 266.56 82.0239 266.976C81.7892 267.381 81.4585 267.691 81.0319 267.904C80.6159 268.117 80.1092 268.224 79.5119 268.224ZM90.011 268.288C89.275 268.288 88.635 268.16 88.091 267.904C87.5577 267.648 87.115 267.307 86.763 266.88C86.411 266.443 86.1443 265.963 85.963 265.44C85.7923 264.917 85.707 264.395 85.707 263.872V263.584C85.707 263.04 85.7923 262.507 85.963 261.984C86.1443 261.461 86.411 260.992 86.763 260.576C87.1257 260.149 87.5737 259.808 88.107 259.552C88.6403 259.296 89.2643 259.168 89.979 259.168C90.6937 259.168 91.3337 259.301 91.899 259.568C92.475 259.835 92.9337 260.213 93.275 260.704C93.627 261.184 93.8243 261.755 93.867 262.416H92.395C92.3203 261.883 92.075 261.44 91.659 261.088C91.243 260.725 90.683 260.544 89.979 260.544C89.371 260.544 88.8643 260.683 88.459 260.96C88.0537 261.237 87.7497 261.616 87.547 262.096C87.3443 262.576 87.243 263.12 87.243 263.728C87.243 264.315 87.3443 264.853 87.547 265.344C87.7497 265.824 88.0537 266.208 88.459 266.496C88.875 266.773 89.3923 266.912 90.011 266.912C90.491 266.912 90.907 266.827 91.259 266.656C91.611 266.485 91.8937 266.256 92.107 265.968C92.3203 265.68 92.4483 265.355 92.491 264.992H93.963C93.931 265.664 93.7337 266.245 93.371 266.736C93.019 267.227 92.5497 267.611 91.963 267.888C91.387 268.155 90.7363 268.288 90.011 268.288ZM99.6821 268.288C98.9355 268.288 98.2901 268.16 97.7461 267.904C97.2021 267.648 96.7595 267.312 96.4181 266.896C96.0768 266.469 95.8208 265.995 95.6501 265.472C95.4901 264.949 95.4101 264.416 95.4101 263.872V263.584C95.4101 263.029 95.4901 262.491 95.6501 261.968C95.8208 261.445 96.0768 260.976 96.4181 260.56C96.7595 260.133 97.1915 259.797 97.7141 259.552C98.2475 259.296 98.8715 259.168 99.5861 259.168C100.514 259.168 101.277 259.371 101.874 259.776C102.482 260.171 102.93 260.683 103.218 261.312C103.517 261.941 103.666 262.613 103.666 263.328V264.016H96.0821V262.864H102.546L102.194 263.488C102.194 262.88 102.098 262.357 101.906 261.92C101.714 261.472 101.426 261.125 101.042 260.88C100.658 260.635 100.173 260.512 99.5861 260.512C98.9781 260.512 98.4715 260.651 98.0661 260.928C97.6715 261.205 97.3728 261.584 97.1701 262.064C96.9781 262.544 96.8821 263.099 96.8821 263.728C96.8821 264.336 96.9781 264.885 97.1701 265.376C97.3728 265.856 97.6821 266.24 98.0981 266.528C98.5141 266.805 99.0421 266.944 99.6821 266.944C100.354 266.944 100.898 266.795 101.314 266.496C101.741 266.197 101.997 265.851 102.082 265.456H103.522C103.405 266.043 103.17 266.549 102.818 266.976C102.466 267.403 102.023 267.728 101.49 267.952C100.957 268.176 100.354 268.288 99.6821 268.288ZM110.359 268.288C109.655 268.288 109.026 268.133 108.471 267.824C107.927 267.515 107.495 267.067 107.175 266.48C106.855 265.883 106.679 265.168 106.647 264.336H107.063V268H105.847V256.32H107.383V262L106.839 263.168C106.882 262.24 107.068 261.483 107.399 260.896C107.73 260.309 108.162 259.877 108.695 259.6C109.239 259.312 109.836 259.168 110.487 259.168C111.095 259.168 111.65 259.285 112.151 259.52C112.652 259.744 113.084 260.059 113.447 260.464C113.81 260.859 114.087 261.323 114.279 261.856C114.471 262.379 114.567 262.944 114.567 263.552V263.84C114.567 264.448 114.466 265.019 114.263 265.552C114.071 266.085 113.788 266.56 113.415 266.976C113.042 267.381 112.594 267.701 112.071 267.936C111.559 268.171 110.988 268.288 110.359 268.288ZM110.183 266.944C110.759 266.944 111.26 266.805 111.687 266.528C112.114 266.251 112.444 265.872 112.679 265.392C112.914 264.901 113.031 264.336 113.031 263.696C113.031 263.056 112.908 262.496 112.663 262.016C112.428 261.536 112.098 261.168 111.671 260.912C111.244 260.645 110.748 260.512 110.183 260.512C109.671 260.512 109.196 260.629 108.759 260.864C108.322 261.088 107.97 261.419 107.703 261.856C107.447 262.283 107.319 262.8 107.319 263.408V264.144C107.319 264.731 107.452 265.232 107.719 265.648C107.986 266.064 108.338 266.384 108.775 266.608C109.212 266.832 109.682 266.944 110.183 266.944ZM120.814 268.288C120.068 268.288 119.412 268.16 118.846 267.904C118.281 267.648 117.801 267.312 117.406 266.896C117.022 266.469 116.729 265.995 116.526 265.472C116.334 264.949 116.238 264.416 116.238 263.872V263.584C116.238 263.04 116.34 262.507 116.542 261.984C116.745 261.451 117.044 260.976 117.438 260.56C117.833 260.133 118.313 259.797 118.878 259.552C119.444 259.296 120.089 259.168 120.814 259.168C121.54 259.168 122.185 259.296 122.75 259.552C123.316 259.797 123.796 260.133 124.19 260.56C124.585 260.976 124.884 261.451 125.086 261.984C125.289 262.507 125.39 263.04 125.39 263.584V263.872C125.39 264.416 125.289 264.949 125.086 265.472C124.894 265.995 124.601 266.469 124.206 266.896C123.822 267.312 123.348 267.648 122.782 267.904C122.217 268.16 121.561 268.288 120.814 268.288ZM120.814 266.912C121.454 266.912 121.998 266.773 122.446 266.496C122.905 266.208 123.252 265.824 123.486 265.344C123.732 264.864 123.854 264.325 123.854 263.728C123.854 263.12 123.732 262.576 123.486 262.096C123.241 261.616 122.889 261.237 122.43 260.96C121.982 260.683 121.444 260.544 120.814 260.544C120.196 260.544 119.657 260.683 119.198 260.96C118.74 261.237 118.388 261.616 118.142 262.096C117.897 262.576 117.774 263.12 117.774 263.728C117.774 264.325 117.892 264.864 118.126 265.344C118.372 265.824 118.718 266.208 119.166 266.496C119.625 266.773 120.174 266.912 120.814 266.912ZM131.627 268.288C130.88 268.288 130.224 268.16 129.659 267.904C129.093 267.648 128.613 267.312 128.219 266.896C127.835 266.469 127.541 265.995 127.339 265.472C127.147 264.949 127.051 264.416 127.051 263.872V263.584C127.051 263.04 127.152 262.507 127.355 261.984C127.557 261.451 127.856 260.976 128.251 260.56C128.645 260.133 129.125 259.797 129.691 259.552C130.256 259.296 130.901 259.168 131.627 259.168C132.352 259.168 132.997 259.296 133.563 259.552C134.128 259.797 134.608 260.133 135.003 260.56C135.397 260.976 135.696 261.451 135.899 261.984C136.101 262.507 136.203 263.04 136.203 263.584V263.872C136.203 264.416 136.101 264.949 135.899 265.472C135.707 265.995 135.413 266.469 135.019 266.896C134.635 267.312 134.16 267.648 133.595 267.904C133.029 268.16 132.373 268.288 131.627 268.288ZM131.627 266.912C132.267 266.912 132.811 266.773 133.259 266.496C133.717 266.208 134.064 265.824 134.299 265.344C134.544 264.864 134.667 264.325 134.667 263.728C134.667 263.12 134.544 262.576 134.299 262.096C134.053 261.616 133.701 261.237 133.243 260.96C132.795 260.683 132.256 260.544 131.627 260.544C131.008 260.544 130.469 260.683 130.011 260.96C129.552 261.237 129.2 261.616 128.955 262.096C128.709 262.576 128.587 263.12 128.587 263.728C128.587 264.325 128.704 264.864 128.939 265.344C129.184 265.824 129.531 266.208 129.979 266.496C130.437 266.773 130.987 266.912 131.627 266.912ZM144.391 268L141.175 264.016H139.767L143.687 259.456H145.303L141.751 263.568L141.863 262.752L146.167 268H144.391ZM138.503 268V256.32H140.039V268H138.503Z" fill="black"/>
<path d="M73.012 288.4V284.092L73.468 283.18C73.444 283.876 73.304 284.448 73.048 284.896C72.792 285.344 72.46 285.676 72.052 285.892C71.652 286.108 71.212 286.216 70.732 286.216C70.276 286.216 69.856 286.128 69.472 285.952C69.096 285.776 68.768 285.532 68.488 285.22C68.216 284.908 68.004 284.552 67.852 284.152C67.7 283.744 67.624 283.312 67.624 282.856V282.64C67.624 282.184 67.7 281.76 67.852 281.368C68.004 280.976 68.22 280.632 68.5 280.336C68.78 280.032 69.112 279.796 69.496 279.628C69.88 279.46 70.308 279.376 70.78 279.376C71.324 279.376 71.8 279.492 72.208 279.724C72.624 279.956 72.952 280.292 73.192 280.732C73.432 281.172 73.564 281.708 73.588 282.34H73.252V279.592H74.164V288.4H73.012ZM70.936 285.16C71.328 285.16 71.684 285.072 72.004 284.896C72.324 284.72 72.58 284.468 72.772 284.14C72.964 283.804 73.06 283.412 73.06 282.964V282.412C73.06 281.972 72.96 281.6 72.76 281.296C72.568 280.984 72.308 280.748 71.98 280.588C71.66 280.42 71.312 280.336 70.936 280.336C70.504 280.336 70.124 280.436 69.796 280.636C69.476 280.836 69.224 281.12 69.04 281.488C68.864 281.848 68.776 282.268 68.776 282.748C68.776 283.228 68.868 283.652 69.052 284.02C69.236 284.38 69.492 284.66 69.82 284.86C70.148 285.06 70.52 285.16 70.936 285.16ZM76.4494 286V277.24H77.6014V286H76.4494ZM75.5614 278.152V277.24H77.6014V278.152H75.5614ZM82.535 286.216C81.975 286.216 81.491 286.12 81.083 285.928C80.675 285.736 80.343 285.484 80.087 285.172C79.831 284.852 79.639 284.496 79.511 284.104C79.391 283.712 79.331 283.312 79.331 282.904V282.688C79.331 282.272 79.391 281.868 79.511 281.476C79.639 281.084 79.831 280.732 80.087 280.42C80.343 280.1 80.667 279.848 81.059 279.664C81.459 279.472 81.927 279.376 82.463 279.376C83.159 279.376 83.731 279.528 84.179 279.832C84.635 280.128 84.971 280.512 85.187 280.984C85.411 281.456 85.523 281.96 85.523 282.496V283.012H79.835V282.148H84.683L84.419 282.616C84.419 282.16 84.347 281.768 84.203 281.44C84.059 281.104 83.843 280.844 83.555 280.66C83.267 280.476 82.903 280.384 82.463 280.384C82.007 280.384 81.627 280.488 81.323 280.696C81.027 280.904 80.803 281.188 80.651 281.548C80.507 281.908 80.435 282.324 80.435 282.796C80.435 283.252 80.507 283.664 80.651 284.032C80.803 284.392 81.035 284.68 81.347 284.896C81.659 285.104 82.055 285.208 82.535 285.208C83.039 285.208 83.447 285.096 83.759 284.872C84.079 284.648 84.271 284.388 84.335 284.092H85.415C85.327 284.532 85.151 284.912 84.887 285.232C84.623 285.552 84.291 285.796 83.891 285.964C83.491 286.132 83.039 286.216 82.535 286.216ZM89.8827 286.216C89.3227 286.216 88.8387 286.12 88.4307 285.928C88.0227 285.736 87.6907 285.484 87.4347 285.172C87.1787 284.852 86.9867 284.496 86.8587 284.104C86.7387 283.712 86.6787 283.312 86.6787 282.904V282.688C86.6787 282.272 86.7387 281.868 86.8587 281.476C86.9867 281.084 87.1787 280.732 87.4347 280.42C87.6907 280.1 88.0147 279.848 88.4067 279.664C88.8067 279.472 89.2747 279.376 89.8107 279.376C90.5067 279.376 91.0787 279.528 91.5267 279.832C91.9827 280.128 92.3187 280.512 92.5347 280.984C92.7587 281.456 92.8707 281.96 92.8707 282.496V283.012H87.1827V282.148H92.0307L91.7667 282.616C91.7667 282.16 91.6947 281.768 91.5507 281.44C91.4067 281.104 91.1907 280.844 90.9027 280.66C90.6147 280.476 90.2507 280.384 89.8107 280.384C89.3547 280.384 88.9747 280.488 88.6707 280.696C88.3747 280.904 88.1507 281.188 87.9987 281.548C87.8547 281.908 87.7827 282.324 87.7827 282.796C87.7827 283.252 87.8547 283.664 87.9987 284.032C88.1507 284.392 88.3827 284.68 88.6947 284.896C89.0067 285.104 89.4027 285.208 89.8827 285.208C90.3867 285.208 90.7947 285.096 91.1067 284.872C91.4267 284.648 91.6187 284.388 91.6827 284.092H92.7627C92.6747 284.532 92.4987 284.912 92.2347 285.232C91.9707 285.552 91.6387 285.796 91.2387 285.964C90.8387 286.132 90.3867 286.216 89.8827 286.216ZM94.1846 286V284.536H95.5766V286H94.1846ZM97.5532 286V279.592H98.4652V282.34H98.3212C98.3212 281.716 98.4012 281.188 98.5612 280.756C98.7292 280.316 98.9772 279.98 99.3052 279.748C99.6332 279.516 100.049 279.4 100.553 279.4H100.601C101.105 279.4 101.521 279.516 101.849 279.748C102.185 279.98 102.433 280.316 102.593 280.756C102.753 281.188 102.833 281.716 102.833 282.34H102.497C102.497 281.716 102.581 281.188 102.749 280.756C102.917 280.316 103.165 279.98 103.493 279.748C103.829 279.516 104.249 279.4 104.753 279.4H104.801C105.305 279.4 105.725 279.516 106.061 279.748C106.397 279.98 106.645 280.316 106.805 280.756C106.973 281.188 107.057 281.716 107.057 282.34V286H105.905V282.088C105.905 281.568 105.777 281.168 105.521 280.888C105.265 280.6 104.909 280.456 104.453 280.456C103.981 280.456 103.601 280.608 103.313 280.912C103.025 281.208 102.881 281.624 102.881 282.16V286H101.729V282.088C101.729 281.568 101.601 281.168 101.345 280.888C101.089 280.6 100.733 280.456 100.277 280.456C99.8052 280.456 99.4252 280.608 99.1372 280.912C98.8492 281.208 98.7052 281.624 98.7052 282.16V286H97.5532ZM111.891 286.216C111.331 286.216 110.847 286.12 110.439 285.928C110.031 285.736 109.699 285.484 109.443 285.172C109.187 284.852 108.995 284.496 108.867 284.104C108.747 283.712 108.687 283.312 108.687 282.904V282.688C108.687 282.272 108.747 281.868 108.867 281.476C108.995 281.084 109.187 280.732 109.443 280.42C109.699 280.1 110.023 279.848 110.415 279.664C110.815 279.472 111.283 279.376 111.819 279.376C112.515 279.376 113.087 279.528 113.535 279.832C113.991 280.128 114.327 280.512 114.543 280.984C114.767 281.456 114.879 281.96 114.879 282.496V283.012H109.191V282.148H114.039L113.775 282.616C113.775 282.16 113.703 281.768 113.559 281.44C113.415 281.104 113.199 280.844 112.911 280.66C112.623 280.476 112.259 280.384 111.819 280.384C111.363 280.384 110.983 280.488 110.679 280.696C110.383 280.904 110.159 281.188 110.007 281.548C109.863 281.908 109.791 282.324 109.791 282.796C109.791 283.252 109.863 283.664 110.007 284.032C110.159 284.392 110.391 284.68 110.703 284.896C111.015 285.104 111.411 285.208 111.891 285.208C112.395 285.208 112.803 285.096 113.115 284.872C113.435 284.648 113.627 284.388 113.691 284.092H114.771C114.683 284.532 114.507 284.912 114.243 285.232C113.979 285.552 113.647 285.796 113.247 285.964C112.847 286.132 112.395 286.216 111.891 286.216ZM115.71 286.72L118.158 276.64H119.238L116.79 286.72H115.71ZM120.807 286V279.268C120.807 278.556 120.995 278.032 121.371 277.696C121.747 277.36 122.299 277.192 123.027 277.192H123.819V278.152H122.835C122.539 278.152 122.311 278.236 122.151 278.404C121.991 278.564 121.911 278.788 121.911 279.076V286H120.807ZM119.919 280.528V279.664H123.939V280.528H119.919ZM129.039 286V284.08H128.847V281.86C128.847 281.42 128.731 281.088 128.499 280.864C128.275 280.64 127.943 280.528 127.503 280.528C127.255 280.528 126.999 280.532 126.735 280.54C126.471 280.548 126.219 280.556 125.979 280.564C125.739 280.572 125.531 280.584 125.355 280.6V279.592C125.531 279.576 125.715 279.564 125.907 279.556C126.107 279.54 126.311 279.532 126.519 279.532C126.727 279.524 126.927 279.52 127.119 279.52C127.775 279.52 128.311 279.6 128.727 279.76C129.143 279.912 129.451 280.164 129.651 280.516C129.851 280.868 129.951 281.344 129.951 281.944V286H129.039ZM126.939 286.168C126.459 286.168 126.043 286.088 125.691 285.928C125.347 285.76 125.079 285.52 124.887 285.208C124.703 284.896 124.611 284.52 124.611 284.08C124.611 283.624 124.711 283.244 124.911 282.94C125.119 282.636 125.419 282.408 125.811 282.256C126.203 282.096 126.675 282.016 127.227 282.016H128.967V282.88H127.179C126.715 282.88 126.359 282.992 126.111 283.216C125.863 283.44 125.739 283.728 125.739 284.08C125.739 284.432 125.863 284.716 126.111 284.932C126.359 285.148 126.715 285.256 127.179 285.256C127.451 285.256 127.711 285.208 127.959 285.112C128.207 285.008 128.411 284.84 128.571 284.608C128.739 284.368 128.831 284.04 128.847 283.624L129.159 284.08C129.119 284.536 129.007 284.92 128.823 285.232C128.647 285.536 128.399 285.768 128.079 285.928C127.767 286.088 127.387 286.168 126.939 286.168ZM134.813 286.216C134.261 286.216 133.781 286.12 133.373 285.928C132.973 285.736 132.641 285.48 132.377 285.16C132.113 284.832 131.913 284.472 131.777 284.08C131.649 283.688 131.585 283.296 131.585 282.904V282.688C131.585 282.28 131.649 281.88 131.777 281.488C131.913 281.096 132.113 280.744 132.377 280.432C132.649 280.112 132.985 279.856 133.385 279.664C133.785 279.472 134.253 279.376 134.789 279.376C135.325 279.376 135.805 279.476 136.229 279.676C136.661 279.876 137.005 280.16 137.261 280.528C137.525 280.888 137.673 281.316 137.705 281.812H136.601C136.545 281.412 136.361 281.08 136.049 280.816C135.737 280.544 135.317 280.408 134.789 280.408C134.333 280.408 133.953 280.512 133.649 280.72C133.345 280.928 133.117 281.212 132.965 281.572C132.813 281.932 132.737 282.34 132.737 282.796C132.737 283.236 132.813 283.64 132.965 284.008C133.117 284.368 133.345 284.656 133.649 284.872C133.961 285.08 134.349 285.184 134.813 285.184C135.173 285.184 135.485 285.12 135.749 284.992C136.013 284.864 136.225 284.692 136.385 284.476C136.545 284.26 136.641 284.016 136.673 283.744H137.777C137.753 284.248 137.605 284.684 137.333 285.052C137.069 285.42 136.717 285.708 136.277 285.916C135.845 286.116 135.357 286.216 134.813 286.216ZM142.066 286.216C141.506 286.216 141.022 286.12 140.614 285.928C140.206 285.736 139.874 285.484 139.618 285.172C139.362 284.852 139.17 284.496 139.042 284.104C138.922 283.712 138.862 283.312 138.862 282.904V282.688C138.862 282.272 138.922 281.868 139.042 281.476C139.17 281.084 139.362 280.732 139.618 280.42C139.874 280.1 140.198 279.848 140.59 279.664C140.99 279.472 141.458 279.376 141.994 279.376C142.69 279.376 143.262 279.528 143.71 279.832C144.166 280.128 144.502 280.512 144.718 280.984C144.942 281.456 145.054 281.96 145.054 282.496V283.012H139.366V282.148H144.214L143.95 282.616C143.95 282.16 143.878 281.768 143.734 281.44C143.59 281.104 143.374 280.844 143.086 280.66C142.798 280.476 142.434 280.384 141.994 280.384C141.538 280.384 141.158 280.488 140.854 280.696C140.558 280.904 140.334 281.188 140.182 281.548C140.038 281.908 139.966 282.324 139.966 282.796C139.966 283.252 140.038 283.664 140.182 284.032C140.334 284.392 140.566 284.68 140.878 284.896C141.19 285.104 141.586 285.208 142.066 285.208C142.57 285.208 142.978 285.096 143.29 284.872C143.61 284.648 143.802 284.388 143.866 284.092H144.946C144.858 284.532 144.682 284.912 144.418 285.232C144.154 285.552 143.822 285.796 143.422 285.964C143.022 286.132 142.57 286.216 142.066 286.216ZM150.074 286.216C149.546 286.216 149.074 286.1 148.658 285.868C148.25 285.636 147.926 285.3 147.686 284.86C147.446 284.412 147.314 283.876 147.29 283.252H147.602V286H146.69V277.24H147.842V281.5L147.434 282.376C147.466 281.68 147.606 281.112 147.854 280.672C148.102 280.232 148.426 279.908 148.826 279.7C149.234 279.484 149.682 279.376 150.17 279.376C150.626 279.376 151.042 279.464 151.418 279.64C151.794 279.808 152.118 280.044 152.39 280.348C152.662 280.644 152.87 280.992 153.014 281.392C153.158 281.784 153.23 282.208 153.23 282.664V282.88C153.23 283.336 153.154 283.764 153.002 284.164C152.858 284.564 152.646 284.92 152.366 285.232C152.086 285.536 151.75 285.776 151.358 285.952C150.974 286.128 150.546 286.216 150.074 286.216ZM149.942 285.208C150.374 285.208 150.75 285.104 151.07 284.896C151.39 284.688 151.638 284.404 151.814 284.044C151.99 283.676 152.078 283.252 152.078 282.772C152.078 282.292 151.986 281.872 151.802 281.512C151.626 281.152 151.378 280.876 151.058 280.684C150.738 280.484 150.366 280.384 149.942 280.384C149.558 280.384 149.202 280.472 148.874 280.648C148.546 280.816 148.282 281.064 148.082 281.392C147.89 281.712 147.794 282.1 147.794 282.556V283.108C147.794 283.548 147.894 283.924 148.094 284.236C148.294 284.548 148.558 284.788 148.886 284.956C149.214 285.124 149.566 285.208 149.942 285.208ZM157.915 286.216C157.355 286.216 156.863 286.12 156.439 285.928C156.015 285.736 155.655 285.484 155.359 285.172C155.071 284.852 154.851 284.496 154.699 284.104C154.555 283.712 154.483 283.312 154.483 282.904V282.688C154.483 282.28 154.559 281.88 154.711 281.488C154.863 281.088 155.087 280.732 155.383 280.42C155.679 280.1 156.039 279.848 156.463 279.664C156.887 279.472 157.371 279.376 157.915 279.376C158.459 279.376 158.943 279.472 159.367 279.664C159.791 279.848 160.151 280.1 160.447 280.42C160.743 280.732 160.967 281.088 161.119 281.488C161.271 281.88 161.347 282.28 161.347 282.688V282.904C161.347 283.312 161.271 283.712 161.119 284.104C160.975 284.496 160.755 284.852 160.459 285.172C160.171 285.484 159.815 285.736 159.391 285.928C158.967 286.12 158.475 286.216 157.915 286.216ZM157.915 285.184C158.395 285.184 158.803 285.08 159.139 284.872C159.483 284.656 159.743 284.368 159.919 284.008C160.103 283.648 160.195 283.244 160.195 282.796C160.195 282.34 160.103 281.932 159.919 281.572C159.735 281.212 159.471 280.928 159.127 280.72C158.791 280.512 158.387 280.408 157.915 280.408C157.451 280.408 157.047 280.512 156.703 280.72C156.359 280.928 156.095 281.212 155.911 281.572C155.727 281.932 155.635 282.34 155.635 282.796C155.635 283.244 155.723 283.648 155.899 284.008C156.083 284.368 156.343 284.656 156.679 284.872C157.023 285.08 157.435 285.184 157.915 285.184ZM166.025 286.216C165.465 286.216 164.973 286.12 164.549 285.928C164.125 285.736 163.765 285.484 163.469 285.172C163.181 284.852 162.961 284.496 162.809 284.104C162.665 283.712 162.593 283.312 162.593 282.904V282.688C162.593 282.28 162.669 281.88 162.821 281.488C162.973 281.088 163.197 280.732 163.493 280.42C163.789 280.1 164.149 279.848 164.573 279.664C164.997 279.472 165.481 279.376 166.025 279.376C166.569 279.376 167.053 279.472 167.477 279.664C167.901 279.848 168.261 280.1 168.557 280.42C168.853 280.732 169.077 281.088 169.229 281.488C169.381 281.88 169.457 282.28 169.457 282.688V282.904C169.457 283.312 169.381 283.712 169.229 284.104C169.085 284.496 168.865 284.852 168.569 285.172C168.281 285.484 167.925 285.736 167.501 285.928C167.077 286.12 166.585 286.216 166.025 286.216ZM166.025 285.184C166.505 285.184 166.913 285.08 167.249 284.872C167.593 284.656 167.853 284.368 168.029 284.008C168.213 283.648 168.305 283.244 168.305 282.796C168.305 282.34 168.213 281.932 168.029 281.572C167.845 281.212 167.581 280.928 167.237 280.72C166.901 280.512 166.497 280.408 166.025 280.408C165.561 280.408 165.157 280.512 164.813 280.72C164.469 280.928 164.205 281.212 164.021 281.572C163.837 281.932 163.745 282.34 163.745 282.796C163.745 283.244 163.833 283.648 164.009 284.008C164.193 284.368 164.453 284.656 164.789 284.872C165.133 285.08 165.545 285.184 166.025 285.184ZM175.598 286L173.186 283.012H172.13L175.07 279.592H176.282L173.618 282.676L173.702 282.064L176.93 286H175.598ZM171.182 286V277.24H172.334V286H171.182Z" fill="#9EA0A0"/>
<defs>
<filter id="filter0_i_717_195" x="0" y="-4" width="320" height="70" filterUnits="userSpaceOnUse" color-interpolation-filters="sRGB">
<feFlood flood-opacity="0" result="BackgroundImageFix"/>
<feBlend mode="normal" in="SourceGraphic" in2="BackgroundImageFix" result="shape"/>
<feColorMatrix in="SourceAlpha" type="matrix" values="0 0 0 0 0 0 0 0 0 0 0 0 0 0 0 0 0 0 127 0" result="hardAlpha"/>
<feOffset dy="-4"/>
<feGaussianBlur stdDeviation="2"/>
<feComposite in2="hardAlpha" operator="arithmetic" k2="-1" k3="1"/>
<feColorMatrix type="matrix" values="0 0 0 0 0 0 0 0 0 0 0 0 0 0 0 0 0 0 0.25 0"/>
<feBlend mode="normal" in2="shape" result="effect1_innerShadow_717_195"/>
</filter>
<filter id="filter1_i_717_195" x="0" y="76" width="320" height="70" filterUnits="userSpaceOnUse" color-interpolation-filters="sRGB">
<feFlood flood-opacity="0" result="BackgroundImageFix"/>
<feBlend mode="normal" in="SourceGraphic" in2="BackgroundImageFix" result="shape"/>
<feColorMatrix in="SourceAlpha" type="matrix" values="0 0 0 0 0 0 0 0 0 0 0 0 0 0 0 0 0 0 127 0" result="hardAlpha"/>
<feOffset dy="-4"/>
<feGaussianBlur stdDeviation="2"/>
<feComposite in2="hardAlpha" operator="arithmetic" k2="-1" k3="1"/>
<feColorMatrix type="matrix" values="0 0 0 0 0 0 0 0 0 0 0 0 0 0 0 0 0 0 0.25 0"/>
<feBlend mode="normal" in2="shape" result="effect1_innerShadow_717_195"/>
</filter>
<filter id="filter2_i_717_195" x="0" y="156" width="320" height="70" filterUnits="userSpaceOnUse" color-interpolation-filters="sRGB">
<feFlood flood-opacity="0" result="BackgroundImageFix"/>
<feBlend mode="normal" in="SourceGraphic" in2="BackgroundImageFix" result="shape"/>
<feColorMatrix in="SourceAlpha" type="matrix" values="0 0 0 0 0 0 0 0 0 0 0 0 0 0 0 0 0 0 127 0" result="hardAlpha"/>
<feOffset dy="-4"/>
<feGaussianBlur stdDeviation="2"/>
<feComposite in2="hardAlpha" operator="arithmetic" k2="-1" k3="1"/>
<feColorMatrix type="matrix" values="0 0 0 0 0 0 0 0 0 0 0 0 0 0 0 0 0 0 0.25 0"/>
<feBlend mode="normal" in2="shape" result="effect1_innerShadow_717_195"/>
</filter>
<filter id="filter3_i_717_195" x="0" y="236" width="320" height="70" filterUnits="userSpaceOnUse" color-interpolation-filters="sRGB">
<feFlood flood-opacity="0" result="BackgroundImageFix"/>
<feBlend mode="normal" in="SourceGraphic" in2="BackgroundImageFix" result="shape"/>
<feColorMatrix in="SourceAlpha" type="matrix" values="0 0 0 0 0 0 0 0 0 0 0 0 0 0 0 0 0 0 127 0" result="hardAlpha"/>
<feOffset dy="-4"/>
<feGaussianBlur stdDeviation="2"/>
<feComposite in2="hardAlpha" operator="arithmetic" k2="-1" k3="1"/>
<feColorMatrix type="matrix" values="0 0 0 0 0 0 0 0 0 0 0 0 0 0 0 0 0 0 0.25 0"/>
<feBlend mode="normal" in2="shape" result="effect1_innerShadow_717_195"/>
</filter>
<linearGradient id="paint0_linear_717_195" x1="37" y1="253" x2="37" y2="292.881" gradientUnits="userSpaceOnUse">
<stop stop-color="#18ACFE"/>
<stop offset="1" stop-color="#0163E0"/>
</linearGradient>
</defs>
</svg>
