<svg width="44" height="44" viewBox="0 0 44 44" fill="none" xmlns="http://www.w3.org/2000/svg">
<path d="M21.3568 37.4863C20.915 37.4863 20.4761 37.3705 20.0891 37.145L16.0514 34.7559C15.448 34.4192 15.7421 34.2988 15.9417 34.2302C16.7462 33.9499 16.9092 33.8844 17.7671 33.3998C17.857 33.3496 17.9743 33.3679 18.0672 33.4227L21.1679 35.2648C21.2806 35.3273 21.4406 35.3273 21.5427 35.2648L33.6361 28.2849C33.7504 28.2209 33.822 28.0914 33.822 27.9573V14.0005C33.822 13.8634 33.7504 13.7369 33.6346 13.6668L21.5458 6.69298C21.433 6.62899 21.2852 6.62899 21.1725 6.69298L9.08521 13.6683C8.96941 13.7369 8.89475 13.8679 8.89475 14.0005V27.9573C8.89475 28.0914 8.96941 28.2178 9.08521 28.2803L12.3977 30.1956C14.1956 31.093 15.2972 30.0356 15.2972 28.9721V15.1905C15.2972 14.997 15.4541 14.8431 15.6476 14.8431H17.182C17.3724 14.8431 17.5309 14.997 17.5309 15.1905V28.9721C17.5309 31.3703 16.2251 32.7462 13.9503 32.7462C13.2509 32.7462 12.7009 32.7462 11.165 31.9905L7.99426 30.1651C7.20957 29.711 6.72656 28.8639 6.72656 27.9588V14.002C6.72656 13.0954 7.20957 12.2498 7.99426 11.7988L20.0876 4.80973C20.8525 4.37853 21.8688 4.37853 22.6276 4.80973L34.7209 11.7988C35.5041 12.2513 35.9902 13.097 35.9902 14.002V27.9588C35.9902 28.8654 35.5041 29.708 34.7209 30.1651L22.6276 37.1465C22.2436 37.3705 21.8063 37.4863 21.3568 37.4863ZM25.0944 27.8705C19.7996 27.8705 18.6919 25.4402 18.6919 23.4031C18.6919 23.2111 18.8489 23.0541 19.0424 23.0541H20.6057C20.7809 23.0541 20.9256 23.1791 20.9531 23.3497C21.1877 24.942 21.8932 25.7449 25.0944 25.7449C27.6404 25.7449 28.7253 25.169 28.7253 23.816C28.7253 23.0359 28.4175 22.4584 24.459 22.0698C21.1496 21.7423 19.1033 21.0124 19.1033 18.3628C19.1033 15.9234 21.1603 14.4667 24.6068 14.4667C28.4815 14.4667 30.3983 15.8121 30.6405 18.698C30.6497 18.7955 30.6146 18.8915 30.5491 18.9661C30.4821 19.0347 30.3907 19.0774 30.2932 19.0774H28.7222C28.5592 19.0774 28.416 18.9631 28.3825 18.8046C28.0046 17.1286 27.0904 16.5938 24.6053 16.5938C21.8246 16.5938 21.5016 17.5644 21.5016 18.2881C21.5016 19.1673 21.8825 19.4232 25.6383 19.92C29.3546 20.4121 31.1205 21.1069 31.1205 23.72C31.122 26.3605 28.9249 27.8705 25.0944 27.8705Z" fill="#83CD29"/>
</svg>
