<svg width="30" height="30" viewBox="0 0 30 30" fill="none" xmlns="http://www.w3.org/2000/svg">
<path d="M22.5 15C22.5 15.9849 22.306 16.9602 21.9291 17.8701C21.5522 18.7801 20.9998 19.6069 20.3033 20.3033C19.6069 20.9998 18.7801 21.5522 17.8701 21.9291C16.9602 22.306 15.9849 22.5 15 22.5C14.0151 22.5 13.0398 22.306 12.1299 21.9291C11.2199 21.5522 10.3931 20.9998 9.69667 20.3033C9.00022 19.6069 8.44785 18.7801 8.0709 17.8701C7.69402 16.9602 7.5 15.9849 7.5 15C7.5 13.0109 8.2902 11.1032 9.69667 9.69667C11.1032 8.2902 13.0109 7.5 15 7.5C16.9891 7.5 18.8968 8.2902 20.3033 9.69667C21.7098 11.1032 22.5 13.0109 22.5 15Z" fill="black"/>
<path d="M15 11.6667V15L17.5 17.5M22.5 15C22.5 15.9849 22.306 16.9602 21.9291 17.8701C21.5522 18.7801 20.9998 19.6069 20.3033 20.3033C19.6069 20.9998 18.7801 21.5522 17.8701 21.9291C16.9602 22.306 15.9849 22.5 15 22.5C14.0151 22.5 13.0398 22.306 12.1299 21.9291C11.2199 21.5522 10.3931 20.9998 9.69667 20.3033C9.00022 19.6069 8.44785 18.7801 8.0709 17.8701C7.69402 16.9602 7.5 15.9849 7.5 15C7.5 13.0109 8.2902 11.1032 9.69667 9.69667C11.1032 8.2902 13.0109 7.5 15 7.5C16.9891 7.5 18.8968 8.2902 20.3033 9.69667C21.7098 11.1032 22.5 13.0109 22.5 15Z" stroke="black" stroke-width="2" stroke-linecap="round" stroke-linejoin="round"/>
<path d="M15 11.625V15L17.25 17.25" stroke="#F2F2F2" stroke-width="2" stroke-linecap="round"/>
</svg>
