<svg width="44" height="44" viewBox="0 0 44 44" fill="none" xmlns="http://www.w3.org/2000/svg">
<circle cx="22" cy="22" r="22" fill="#6066FF"/>
<path d="M20.0203 12.7402H22.5532L21.8374 16.5459H24.1134C25.3615 16.5726 26.2914 16.8516 26.9033 17.3828C27.5274 17.914 27.7109 18.9238 27.454 20.4114L26.2242 27.0465H23.6545L24.8292 20.7103C24.9515 20.046 24.9148 19.5746 24.7191 19.2956C24.5234 19.0167 24.1013 18.8772 23.4526 18.8772L21.4152 18.8573L19.9102 27.0465H17.3772L20.0203 12.7402Z" fill="white"/>
<path fill-rule="evenodd" clip-rule="evenodd" d="M8.4138 16.546H13.3329C14.7767 16.5592 15.8229 17.0111 16.4716 17.9009C17.1202 18.7908 17.3342 20.0062 17.114 21.5472C17.0284 22.2514 16.8387 22.942 16.545 23.6194C16.2634 24.2969 15.8721 24.9078 15.3703 25.4525C14.7583 26.1432 14.1038 26.5815 13.4063 26.7676C12.7088 26.9537 11.9868 27.0466 11.2404 27.0466H9.03787L8.34038 30.8323H5.78906L8.4138 16.546ZM9.46003 24.795L10.5576 18.8374H10.9284C11.0631 18.8374 11.2037 18.8306 11.3506 18.8175C12.3296 18.8043 13.1431 18.9039 13.7918 19.1164C14.4525 19.3288 14.6728 20.1325 14.4525 21.5273C14.1834 23.1878 13.657 24.1574 12.874 24.4364C12.091 24.7022 11.112 24.8281 9.93725 24.8149H9.68028C9.60687 24.8149 9.53345 24.8082 9.46003 24.795Z" fill="white"/>
<path fill-rule="evenodd" clip-rule="evenodd" d="M35.0931 16.546H30.174L27.5492 30.8323H30.1005L30.798 27.0466H33.0006C33.7469 27.0466 34.469 26.9537 35.1665 26.7676C35.864 26.5815 36.5185 26.1432 37.1304 25.4525C37.6323 24.9078 38.0236 24.2969 38.3051 23.6194C38.5988 22.942 38.7886 22.2514 38.8741 21.5472C39.0944 20.0062 38.8804 18.7908 38.2317 17.9009C37.5831 17.0111 36.5368 16.5592 35.0931 16.546ZM32.3178 18.8374L31.2202 24.795C31.2936 24.8082 31.367 24.8149 31.4405 24.8149H31.6974C32.8721 24.8281 33.8512 24.7022 34.6342 24.4364C35.4172 24.1574 35.9436 23.1878 36.2127 21.5273C36.433 20.1325 36.2127 19.3288 35.5519 19.1164C34.9033 18.9039 34.0898 18.8043 33.1107 18.8175C32.9639 18.8306 32.8233 18.8374 32.6886 18.8374H32.3178Z" fill="white"/>
</svg>
