<svg width="44" height="44" viewBox="0 0 44 44" fill="none" xmlns="http://www.w3.org/2000/svg">
<path d="M22.4782 25.351C24.3366 25.351 25.8432 23.8444 25.8432 21.986C25.8432 20.1276 24.3366 18.6211 22.4782 18.6211C20.6198 18.6211 19.1133 20.1276 19.1133 21.986C19.1133 23.8444 20.6198 25.351 22.4782 25.351Z" fill="#61DAFB"/>
<path d="M35.2585 16.4371C34.6091 16.201 33.9302 15.9649 33.2218 15.7582C33.3989 15.0498 33.5465 14.3414 33.6646 13.6625C34.2844 9.76629 33.6055 7.02121 31.7165 5.9586C31.1556 5.63391 30.5358 5.48633 29.8274 5.48633C27.7612 5.48633 25.1342 7.02121 22.4776 9.58919C19.8211 7.02121 17.1941 5.48633 15.1279 5.48633C14.4195 5.48633 13.7996 5.63391 13.2388 5.9586C11.3497 7.05073 10.6708 9.79581 11.2907 13.6625C11.4088 14.3414 11.5564 15.0498 11.7335 15.7582C11.025 15.9649 10.3462 16.1715 9.69678 16.4371C6.00716 17.8539 4 19.8021 4 21.9863C4 24.1706 6.03667 26.1187 9.69678 27.5355C10.3462 27.7717 11.025 28.0078 11.7335 28.2144C11.5564 28.9228 11.4088 29.6312 11.2907 30.3101C10.6708 34.2064 11.3497 36.9514 13.2388 38.0141C13.7996 38.3387 14.4195 38.4863 15.1279 38.4863C17.2236 38.4863 19.8506 36.9514 22.4776 34.3835C25.1342 36.9514 27.7612 38.4863 29.8274 38.4863C30.5358 38.4863 31.1556 38.3387 31.7165 38.0141C33.6055 36.9219 34.2844 34.1768 33.6646 30.3101C33.5465 29.6312 33.3989 28.9228 33.2218 28.2144C33.9302 28.0078 34.6091 27.8012 35.2585 27.5355C38.9481 26.1187 40.9553 24.1706 40.9553 21.9863C40.9553 19.8021 38.9481 17.8539 35.2585 16.4371ZM30.89 7.43445C32.1002 8.14286 32.5134 10.3271 32.0116 13.4264C31.9231 14.0463 31.7755 14.6956 31.5984 15.3745C30.0635 15.0203 28.4401 14.7842 26.7281 14.6366C25.7245 13.2198 24.6914 11.9506 23.6583 10.7994C25.8426 8.64465 28.0564 7.1688 29.8569 7.1688C30.2406 7.1688 30.5948 7.25735 30.89 7.43445ZM27.5841 24.938C27.0528 25.8826 26.4329 26.8271 25.7835 27.7717C24.6914 27.8602 23.5993 27.8897 22.4776 27.8897C21.3265 27.8897 20.2343 27.8602 19.1717 27.7717C18.5224 26.8271 17.932 25.8826 17.4007 24.938C16.8399 23.964 16.3086 22.9604 15.8363 21.9863C16.3086 21.0123 16.8399 20.0087 17.4007 19.0346C17.932 18.0901 18.5519 17.1455 19.2013 16.201C20.2934 16.1124 21.3855 16.0829 22.5072 16.0829C23.6583 16.0829 24.7504 16.1124 25.8131 16.201C26.4624 17.1455 27.0528 18.0901 27.5841 19.0346C28.1449 20.0087 28.6762 21.0123 29.1485 21.9863C28.6467 22.9604 28.1449 23.9345 27.5841 24.938ZM30.034 23.964C30.4767 24.9971 30.8309 26.0006 31.1556 27.0042C30.1521 27.2404 29.0894 27.4175 27.9678 27.565C28.322 27.0042 28.7057 26.4139 29.0304 25.794C29.3846 25.1742 29.7093 24.5543 30.034 23.964ZM22.4776 31.9631C21.7692 31.1956 21.0903 30.3692 20.441 29.5132C21.1199 29.5427 21.7987 29.5722 22.4776 29.5722C23.1565 29.5722 23.8354 29.5427 24.5143 29.5132C23.8649 30.3692 23.186 31.1956 22.4776 31.9631ZM16.9875 27.5355C15.8658 27.3879 14.8032 27.2108 13.7996 26.9747C14.1243 26.0006 14.4785 24.9675 14.9213 23.9345C15.246 24.5248 15.5707 25.1446 15.9249 25.735C16.2791 26.3844 16.6333 26.9452 16.9875 27.5355ZM14.9213 20.0087C14.4785 18.9756 14.1243 17.972 13.7996 16.9684C14.8032 16.7323 15.8658 16.5552 16.9875 16.4076C16.6333 16.9684 16.2496 17.5588 15.9249 18.1786C15.5707 18.7985 15.246 19.4183 14.9213 20.0087ZM22.4776 12.0096C23.186 12.777 23.8649 13.6035 24.5143 14.4595C23.8354 14.43 23.1565 14.4005 22.4776 14.4005C21.7987 14.4005 21.1199 14.43 20.441 14.4595C21.0903 13.6035 21.7692 12.777 22.4776 12.0096ZM29.0304 18.2082L27.9678 16.4371C29.0894 16.5847 30.1521 16.7618 31.1556 16.998C30.8309 17.972 30.4767 19.0051 30.034 20.0382C29.7093 19.4184 29.3846 18.7985 29.0304 18.2082ZM12.9437 13.4264C12.4419 10.3271 12.8551 8.14286 14.0653 7.43445C14.3605 7.25735 14.7147 7.1688 15.0984 7.1688C16.8694 7.1688 19.0832 8.61513 21.297 10.7994C20.2639 11.921 19.2308 13.2198 18.2272 14.6366C16.5152 14.7842 14.8918 15.0498 13.3569 15.3745C13.1798 14.6956 13.0617 14.0463 12.9437 13.4264ZM5.65295 21.9863C5.65295 20.599 7.33542 19.1232 10.2871 18.0311C10.8775 17.7949 11.5268 17.5883 12.1762 17.4112C12.6485 18.887 13.2388 20.4514 13.9472 22.0158C13.2388 23.5802 12.619 25.1151 12.1762 26.591C8.10286 25.4103 5.65295 23.6393 5.65295 21.9863ZM14.0653 36.5382C12.8551 35.8298 12.4419 33.6455 12.9437 30.5463C13.0322 29.9264 13.1798 29.277 13.3569 28.5981C14.8918 28.9523 16.5152 29.1885 18.2272 29.3361C19.2308 30.7529 20.2639 32.0221 21.297 33.1733C19.1127 35.328 16.8989 36.8039 15.0984 36.8039C14.7147 36.8039 14.3605 36.7153 14.0653 36.5382ZM32.0116 30.5463C32.5134 33.6455 32.1002 35.8298 30.89 36.5382C30.5948 36.7153 30.2406 36.8039 29.8569 36.8039C28.0859 36.8039 25.8721 35.3575 23.6583 33.1733C24.6914 32.0516 25.7245 30.7529 26.7281 29.3361C28.4401 29.1885 30.0635 28.9228 31.5984 28.5981C31.7755 29.277 31.8936 29.9264 32.0116 30.5463ZM34.6682 25.9416C34.0778 26.1777 33.4284 26.3844 32.7791 26.5615C32.3068 25.0856 31.7165 23.5212 31.0081 21.9568C31.7165 20.3924 32.3363 18.8575 32.7791 17.3817C36.8524 18.5624 39.3023 20.3334 39.3023 21.9863C39.3023 23.3736 37.5903 24.8495 34.6682 25.9416Z" fill="#61DAFB"/>
</svg>
