<svg width="21" height="21" viewBox="0 0 21 21" fill="none" xmlns="http://www.w3.org/2000/svg">
<path fill-rule="evenodd" clip-rule="evenodd" d="M10.3011 18.1358C12.4229 18.1358 14.4577 17.2929 15.958 15.7927C17.4583 14.2924 18.3011 12.2575 18.3011 10.1358C18.3011 8.01407 17.4583 5.97924 15.958 4.47895C14.4577 2.97866 12.4229 2.1358 10.3011 2.1358C8.17942 2.1358 6.14458 2.97866 4.64429 4.47895C3.144 5.97924 2.30115 8.01407 2.30115 10.1358C2.30115 12.2575 3.144 14.2924 4.64429 15.7927C6.14458 17.2929 8.17942 18.1358 10.3011 18.1358ZM14.0081 8.8428C14.1903 8.6542 14.2911 8.4016 14.2888 8.1394C14.2865 7.87721 14.1814 7.62639 13.996 7.44098C13.8106 7.25558 13.5597 7.15041 13.2975 7.14813C13.0354 7.14585 12.7828 7.24665 12.5941 7.4288L9.30115 10.7218L8.00815 9.4288C7.81955 9.24665 7.56694 9.14585 7.30475 9.14813C7.04255 9.15041 6.79174 9.25558 6.60633 9.44098C6.42092 9.62639 6.31575 9.87721 6.31347 10.1394C6.31119 10.4016 6.41199 10.6542 6.59415 10.8428L8.59415 12.8428C8.78168 13.0303 9.03598 13.1356 9.30115 13.1356C9.56631 13.1356 9.82062 13.0303 10.0081 12.8428L14.0081 8.8428Z" fill="#1DD1A1"/>
</svg>
