<svg width="20" height="20" viewBox="0 0 20 20" fill="none" xmlns="http://www.w3.org/2000/svg">
<path d="M11.6357 8.46171L11.4583 13.077M9.003 13.077L8.82557 8.46171M13.9372 6.8156C14.1126 6.84227 14.287 6.87047 14.4613 6.90073M13.9372 6.81612L13.3895 13.9349C13.3672 14.2248 13.2362 14.4955 13.0229 14.693C12.8095 14.8904 12.5295 15.0001 12.2388 15H8.2225C7.93179 15.0001 7.65176 14.8904 7.43841 14.693C7.22506 14.4955 7.09412 14.2248 7.07177 13.9349L6.52409 6.8156M13.9372 6.8156C13.3454 6.72613 12.7505 6.65822 12.1537 6.61202M6 6.90022C6.17435 6.86996 6.34871 6.84176 6.52409 6.8156M6.52409 6.8156C7.11594 6.72613 7.71084 6.65822 8.30763 6.61202M12.1537 6.61202V6.14229C12.1537 5.53718 11.687 5.03257 11.0819 5.0136C10.5146 4.99547 9.94676 4.99547 9.3794 5.0136C8.77428 5.03257 8.30763 5.53769 8.30763 6.14229V6.61202M12.1537 6.61202C10.8736 6.51309 9.58774 6.51309 8.30763 6.61202" stroke="#EB4335" stroke-width="1.2" stroke-linecap="round" stroke-linejoin="round"/>
</svg>
