<svg width="48" height="48" viewBox="0 0 48 48" fill="none" xmlns="http://www.w3.org/2000/svg">
<path d="M27.7825 15C25.4158 15 23.4971 17.0148 23.4971 19.5C23.4971 19.8755 23.5408 20.2404 23.6234 20.5891C21.3477 20.5891 17.9198 20.129 15.057 17.2608C14.6763 16.8794 13.9743 17.1345 14.0007 17.6727C14.425 26.3205 18.1286 28.843 20.0358 29C18.8042 30.2164 17.0152 31.1765 15.2149 31.6075C14.7399 31.7212 14.6225 32.2413 15.087 32.3924C16.3753 32.8113 18.219 32.9728 19.2115 33C26.2324 33 31.939 27.0905 32.066 19.7501C32.9877 19.1506 33.5782 17.8491 33.91 16.927C33.9907 16.7025 33.6226 16.4408 33.4024 16.5326C32.7138 16.8192 31.8396 16.8872 31.0949 16.6445C30.309 15.6405 29.117 15 27.7825 15Z" fill="black"/>
</svg>
