<svg width="44" height="44" viewBox="0 0 44 44" fill="none" xmlns="http://www.w3.org/2000/svg">
<circle cx="22" cy="22" r="22" fill="#3178C6"/>
<path fill-rule="evenodd" clip-rule="evenodd" d="M28.6898 30.6843V34.1367C29.2511 34.4245 29.9153 34.6404 30.6819 34.7841C31.4485 34.9281 32.2567 35 33.1062 35C33.934 35 34.7202 34.9209 35.4655 34.7625C36.2105 34.6043 36.8636 34.3436 37.425 33.9802C37.9867 33.6171 38.4312 33.1423 38.7588 32.5561C39.0862 31.9702 39.2501 31.2454 39.2501 30.3824C39.2501 29.7566 39.1563 29.2082 38.9693 28.7369C38.7822 28.2658 38.5121 27.847 38.1593 27.4801C37.8066 27.1133 37.3838 26.7842 36.8908 26.4927C36.3975 26.2015 35.8416 25.9264 35.2225 25.6675C34.769 25.4805 34.3623 25.2989 34.0024 25.1226C33.6425 24.9465 33.3365 24.7667 33.0845 24.5831C32.8326 24.3998 32.6383 24.2056 32.5015 24.0006C32.3647 23.7957 32.2963 23.5636 32.2963 23.3047C32.2963 23.0675 32.3575 22.8533 32.4798 22.6628C32.6022 22.4723 32.7748 22.3086 32.9982 22.1718C33.2213 22.0353 33.4947 21.9291 33.8188 21.8537C34.1427 21.7781 34.5026 21.7403 34.8986 21.7403C35.1864 21.7403 35.4906 21.762 35.811 21.805C36.1314 21.8483 36.4535 21.9147 36.7773 22.0047C37.1012 22.0945 37.4161 22.2079 37.722 22.3444C38.028 22.4812 38.3106 22.6394 38.5698 22.8192V19.5934C38.0442 19.392 37.4701 19.2427 36.8475 19.1455C36.2249 19.0485 35.5105 19 34.7041 19C33.8835 19 33.1062 19.088 32.3719 19.2644C31.6376 19.4405 30.9916 19.7155 30.4337 20.0896C29.8758 20.4637 29.4347 20.9402 29.1109 21.5192C28.787 22.0982 28.6251 22.7904 28.6251 23.596C28.6251 24.6247 28.9218 25.5021 29.5158 26.2286C30.1098 26.9551 31.0112 27.5699 32.2206 28.0736C32.6957 28.2675 33.1385 28.4583 33.5487 28.6454C33.9591 28.8321 34.3135 29.0264 34.6123 29.2278C34.911 29.4293 35.1468 29.6487 35.3197 29.8859C35.4923 30.1235 35.5786 30.3931 35.5786 30.6953C35.5786 30.9181 35.5247 31.125 35.4167 31.3155C35.3088 31.506 35.1451 31.6714 34.9255 31.8117C34.7058 31.952 34.4325 32.0617 34.1049 32.1408C33.7773 32.2199 33.3939 32.2597 32.9549 32.2597C32.2062 32.2597 31.4647 32.1284 30.7307 31.8657C29.9964 31.6033 29.3161 31.2093 28.6898 30.6843ZM22.9352 22.0927H27.375V19.25H15V22.0927H19.4182V34.75H22.9352V22.0927Z" fill="white"/>
</svg>
